<svg xmlns="http://www.w3.org/2000/svg" width="1030" height="118.44" viewBox="0 0 1030 118.44"><title>grafiek</title><g opacity="0.3"><rect x="164.48" y="22.48" width="101.82" height="42.69" fill="#fff"/><rect x="268.58" y="22.48" width="101.82" height="42.69" fill="#fff"/><rect x="372.68" y="22.48" width="101.82" height="42.69" fill="#fff"/><rect x="476.78" y="22.48" width="101.82" height="42.69" fill="#fff"/><rect x="580.88" y="22.48" width="101.82" height="42.69" fill="#fff"/><rect x="684.98" y="22.48" width="101.82" height="42.69" fill="#fff"/><rect x="789.08" y="22.48" width="101.82" height="42.69" fill="#fff"/><path d="M893.18,22.48h80.48A21.35,21.35,0,0,1,995,43.83h0a21.35,21.35,0,0,1-21.35,21.34H893.18V22.48Z" fill="#fff"/><path d="M127.39,22.48h35V65.17h-35A21.35,21.35,0,0,1,106,43.86v0h0a21.35,21.35,0,0,1,21.35-21.35h0Z" fill="#fff"/></g><path d="M42.4,36.17a0.7,0.7,0,0,1,.31,0,0.45,0.45,0,0,1,.34.16,0.52,0.52,0,0,1,.14.36,0.53,0.53,0,0,1-.3.52,8.28,8.28,0,0,1-1.37.6,5.5,5.5,0,0,1-1.75.25,5.25,5.25,0,0,1-1.89-.33,4.28,4.28,0,0,1-1.52-1A4.8,4.8,0,0,1,35,33.17a4.8,4.8,0,0,1,1.37-3.59,4.65,4.65,0,0,1,3.42-1.31,5.48,5.48,0,0,1,1.74.25,7.33,7.33,0,0,1,1.12.46,1.41,1.41,0,0,1,.47.34,0.6,0.6,0,0,1,.08.33,0.51,0.51,0,0,1-.14.36,0.45,0.45,0,0,1-.34.16,0.7,0.7,0,0,1-.31-0.06,6.61,6.61,0,0,0-1.12-.46,4.89,4.89,0,0,0-1.43-.18,4,4,0,0,0-1.54.29,3.22,3.22,0,0,0-1.15.79,4.2,4.2,0,0,0,0,5.26,3.55,3.55,0,0,0,2.74,1,4.7,4.7,0,0,0,1.38-.18A6.61,6.61,0,0,0,42.4,36.17Z" fill="#ef6262"/><path d="M47.71,30.8a3.36,3.36,0,0,1,2.54,1,4.07,4.07,0,0,1,0,5.25,3.73,3.73,0,0,1-5.08,0,4.08,4.08,0,0,1,0-5.25A3.33,3.33,0,0,1,47.71,30.8Zm-1.52,5.54a2,2,0,0,0,.72.43,2.36,2.36,0,0,0,1.58,0,2.14,2.14,0,0,0,.73-0.42,2.88,2.88,0,0,0,0-3.85,2.17,2.17,0,0,0-1.52-.56,2.06,2.06,0,0,0-2,1.33,3.35,3.35,0,0,0,0,2.31,2.2,2.2,0,0,0,.48.76h0Z" fill="#ef6262"/><path d="M54.18,32.06A2.64,2.64,0,0,1,56.5,30.8a2.22,2.22,0,0,1,1.34.44,2.14,2.14,0,0,1,.75,1,2.82,2.82,0,0,1,.75-0.85,2.94,2.94,0,0,1,1.76-.56,2,2,0,0,1,1.73.85,2.87,2.87,0,0,1,.55,1.78v3.93a0.58,0.58,0,0,1-.18.44,0.62,0.62,0,0,1-.44.18,0.61,0.61,0,0,1-.61-0.61h0V33.67a2.22,2.22,0,0,0-.31-1.29,1.25,1.25,0,0,0-1.09-.43,2.25,2.25,0,0,0-2,1.31v4.1a0.58,0.58,0,0,1-.18.44,0.62,0.62,0,0,1-.44.18,0.61,0.61,0,0,1-.61-0.61h0v-3.7a2.22,2.22,0,0,0-.31-1.29,1.25,1.25,0,0,0-1.09-.43,2.25,2.25,0,0,0-2,1.31v4.1a0.58,0.58,0,0,1-.18.44,0.62,0.62,0,0,1-.44.18,0.61,0.61,0,0,1-.61-0.61h0V31.5a0.62,0.62,0,0,1,.18-0.44,0.58,0.58,0,0,1,.44-0.18,0.63,0.63,0,0,1,.63.63v0.56h0Z" fill="#ef6262"/><path d="M66.74,32.06a2.64,2.64,0,0,1,2.32-1.26,2.22,2.22,0,0,1,1.34.44,2.14,2.14,0,0,1,.75,1,2.82,2.82,0,0,1,.75-0.85,2.94,2.94,0,0,1,1.76-.56,2,2,0,0,1,1.73.85,2.87,2.87,0,0,1,.55,1.78v3.93a0.58,0.58,0,0,1-.18.44,0.62,0.62,0,0,1-.44.18,0.61,0.61,0,0,1-.61-0.61h0V33.67a2.22,2.22,0,0,0-.31-1.29,1.25,1.25,0,0,0-1.09-.43,2.25,2.25,0,0,0-2,1.31v4.1a0.58,0.58,0,0,1-.18.44,0.62,0.62,0,0,1-.44.18,0.61,0.61,0,0,1-.61-0.61h0v-3.7a2.22,2.22,0,0,0-.31-1.29,1.25,1.25,0,0,0-1.09-.43,2.25,2.25,0,0,0-2,1.31v4.1a0.58,0.58,0,0,1-.18.44,0.62,0.62,0,0,1-.44.18,0.61,0.61,0,0,1-.61-0.61h0V31.5a0.62,0.62,0,0,1,.18-0.44,0.58,0.58,0,0,1,.44-0.18,0.63,0.63,0,0,1,.63.63v0.56h0Z" fill="#ef6262"/><path d="M79.47,28.82a0.7,0.7,0,0,1-.7.7H78.69a0.7,0.7,0,0,1-.7-0.7h0v0a0.7,0.7,0,0,1,.7-0.7h0.08a0.7,0.7,0,0,1,.7.7h0v0ZM78.28,31a0.64,0.64,0,0,1,.89,0,0.61,0.61,0,0,1,.18.45v5.86a0.59,0.59,0,0,1-.18.44,0.64,0.64,0,0,1-.89,0,0.59,0.59,0,0,1-.18-0.44V31.5A0.61,0.61,0,0,1,78.28,31Z" fill="#ef6262"/><path d="M84.11,36.95a1.56,1.56,0,0,0,.52-0.06A0.92,0.92,0,0,1,85,36.83a0.49,0.49,0,0,1,.33.14,0.53,0.53,0,0,1,.15.41,0.41,0.41,0,0,1-.27.4,2.47,2.47,0,0,1-1,.27,6.41,6.41,0,0,1-.76,0A1.61,1.61,0,0,1,82,36.3V32H81a0.23,0.23,0,0,1-.26-0.26,0.31,0.31,0,0,1,.12-0.23l1.86-1.82A0.34,0.34,0,0,1,83,29.57a0.24,0.24,0,0,1,.18.08,0.27,0.27,0,0,1,.08.19v1.09H84.8a0.53,0.53,0,0,1,0,1.07H83.25v4.17a0.76,0.76,0,0,0,.31.71A1,1,0,0,0,84.11,36.95Z" fill="#ef6262"/><path d="M89,36.89q1.52,0,1.52-1a0.5,0.5,0,0,0-.3-0.46,3.79,3.79,0,0,0-.74-0.26l-1-.25a4.55,4.55,0,0,1-1-.36,2.26,2.26,0,0,1-.76-0.61,1.43,1.43,0,0,1-.3-0.92,2.46,2.46,0,0,1,.16-0.94,1.82,1.82,0,0,1,.49-0.68,3,3,0,0,1,2-.61,5.86,5.86,0,0,1,2,.34,0.57,0.57,0,0,1,.4.55,0.5,0.5,0,0,1-.16.35,0.44,0.44,0,0,1-.31.13,1.28,1.28,0,0,1-.36,0A4.78,4.78,0,0,0,89.21,32a2.11,2.11,0,0,0-1.21.21,0.79,0.79,0,0,0-.4.66,0.62,0.62,0,0,0,.31.57,3,3,0,0,0,.76.31l1,0.25a4.61,4.61,0,0,1,1,.34A1.79,1.79,0,0,1,91.74,36a1.76,1.76,0,0,1-.66,1.42,3,3,0,0,1-2,.6,5,5,0,0,1-2.49-.61A0.49,0.49,0,0,1,86.36,37a0.61,0.61,0,0,1,.15-0.42,0.43,0.43,0,0,1,.33-0.17,1.08,1.08,0,0,1,.42.11A4.18,4.18,0,0,0,89,36.89Z" fill="#ef6262"/><path d="M45.85,50.71a0.88,0.88,0,0,1,.26.63V59.5a0.61,0.61,0,0,1-.61.61h0a0.61,0.61,0,0,1-.5-0.17,0.58,0.58,0,0,1-.18-0.44V51.74l-3.16,7.8a0.95,0.95,0,0,1-1.75,0l-3.11-7.8V59.5a0.58,0.58,0,0,1-.18.44,0.62,0.62,0,0,1-.44.18,0.61,0.61,0,0,1-.61-0.61h0V51.34a0.88,0.88,0,0,1,.26-0.63,0.84,0.84,0,0,1,.63-0.27H36.9a0.82,0.82,0,0,1,.5.16,1,1,0,0,1,.33.41l3.1,7.73L43.93,51a1,1,0,0,1,.33-0.41,0.82,0.82,0,0,1,.5-0.16h0.45A0.85,0.85,0,0,1,45.85,50.71Z" fill="#40ff9f"/><path d="M49.86,58.47A2.32,2.32,0,0,0,51.5,59a3.92,3.92,0,0,0,1.76-.35,1,1,0,0,1,.42-0.12,0.5,0.5,0,0,1,.34.15,0.45,0.45,0,0,1,.16.34,0.54,0.54,0,0,1-.29.51l-0.53.27a3.57,3.57,0,0,1-.51.19,5.15,5.15,0,0,1-1.42.18,3.5,3.5,0,0,1-2.61-.94,3.65,3.65,0,0,1-.93-2.68,3.94,3.94,0,0,1,.78-2.5,3.38,3.38,0,0,1,4.91-.12,3.56,3.56,0,0,1,.83,2.4,0.6,0.6,0,0,1-.59.61H49.17A2.3,2.3,0,0,0,49.86,58.47ZM51.17,54a1.87,1.87,0,0,0-1.77,1.08,2.15,2.15,0,0,0-.23.92h4a2.07,2.07,0,0,0-.71-1.53A2,2,0,0,0,51.18,54h0Z" fill="#40ff9f"/><path d="M58.32,59q1.52,0,1.52-1a0.5,0.5,0,0,0-.3-0.46,3.79,3.79,0,0,0-.76-0.28l-1-.25a4.53,4.53,0,0,1-1-.36A2.26,2.26,0,0,1,56,56.1a1.43,1.43,0,0,1-.3-0.92,2.46,2.46,0,0,1,.16-0.94,1.82,1.82,0,0,1,.49-0.68,3,3,0,0,1,2-.61,5.87,5.87,0,0,1,2,.34,0.58,0.58,0,0,1,.4.55,0.5,0.5,0,0,1-.16.35,0.44,0.44,0,0,1-.31.16,1.28,1.28,0,0,1-.37-0.07,4.78,4.78,0,0,0-1.43-.2,2.11,2.11,0,0,0-1.18.27,0.79,0.79,0,0,0-.4.65,0.61,0.61,0,0,0,.31.57,3,3,0,0,0,.76.31l1,0.29a4.64,4.64,0,0,1,1,.34,1.79,1.79,0,0,1,1,1.66,1.76,1.76,0,0,1-.66,1.42,3,3,0,0,1-2,.6,5,5,0,0,1-2.49-.61,0.49,0.49,0,0,1-.17-0.41,0.61,0.61,0,0,1,.15-0.42,0.44,0.44,0,0,1,.33-0.17,1.07,1.07,0,0,1,.42.11A4.19,4.19,0,0,0,58.32,59Z" fill="#40ff9f"/><path d="M64.88,59q1.52,0,1.52-1a0.5,0.5,0,0,0-.3-0.46,3.79,3.79,0,0,0-.76-0.28l-1-.25a4.53,4.53,0,0,1-1-.36,2.26,2.26,0,0,1-.76-0.61,1.43,1.43,0,0,1-.28-0.9,2.46,2.46,0,0,1,.16-0.94A1.82,1.82,0,0,1,63,53.56a3,3,0,0,1,2-.61,5.87,5.87,0,0,1,2,.34,0.58,0.58,0,0,1,.4.55,0.5,0.5,0,0,1-.16.35,0.44,0.44,0,0,1-.31.16,1.28,1.28,0,0,1-.37-0.07,4.78,4.78,0,0,0-1.43-.2,2.11,2.11,0,0,0-1.18.27,0.79,0.79,0,0,0-.4.65,0.61,0.61,0,0,0,.31.57,3,3,0,0,0,.76.31l1,0.25a4.64,4.64,0,0,1,1,.34,1.79,1.79,0,0,1,1,1.7,1.76,1.76,0,0,1-.66,1.42,3,3,0,0,1-2,.6,5,5,0,0,1-2.49-.61,0.49,0.49,0,0,1-.21-0.41,0.61,0.61,0,0,1,.15-0.42,0.44,0.44,0,0,1,.33-0.17,1.07,1.07,0,0,1,.42.11A4.19,4.19,0,0,0,64.88,59Z" fill="#40ff9f"/><path d="M69.48,53.43a6,6,0,0,1,2.38-.49,2.76,2.76,0,0,1,2.16.85,2.61,2.61,0,0,1,.68,1.84V59.5a0.58,0.58,0,0,1-.18.44,0.62,0.62,0,0,1-.44.18,0.61,0.61,0,0,1-.61-0.61h0V59.17a3.89,3.89,0,0,1-1,.71,3.37,3.37,0,0,1-1.58.33,2.31,2.31,0,0,1-1.57-.55,1.9,1.9,0,0,1-.66-1.5,1.87,1.87,0,0,1,.76-1.58,3.89,3.89,0,0,1,2.38-.63h1.65V55.81a1.64,1.64,0,0,0-.45-1.3,2.07,2.07,0,0,0-1.38-.39,6,6,0,0,0-1.82.33H69.55a0.43,0.43,0,0,1-.29-0.14,0.59,0.59,0,0,1-.15-0.44A0.49,0.49,0,0,1,69.48,53.43ZM69.9,58q0,1.09,1.45,1.09a2.38,2.38,0,0,0,1.2-.31,3.56,3.56,0,0,0,.91-0.71V56.92H72a3.79,3.79,0,0,0-1.52.25,0.85,0.85,0,0,0-.57.83h0Z" fill="#40ff9f"/><path d="M82,54V53.64a0.62,0.62,0,0,1,.2-0.47A0.59,0.59,0,0,1,82.64,53a0.63,0.63,0,0,1,.63.63h0v6.11a3.83,3.83,0,0,1-.83,2.66,3,3,0,0,1-2.38.92,5.94,5.94,0,0,1-2.92-.71,0.47,0.47,0,0,1-.25-0.43A0.64,0.64,0,0,1,77,61.75a0.44,0.44,0,0,1,.33-0.18,0.82,0.82,0,0,1,.31,0,5,5,0,0,0,2.25.52q2.11,0,2.11-2.22V59a3.08,3.08,0,0,1-2.34,1,3.13,3.13,0,0,1-2.2-.84,3.86,3.86,0,0,1,0-5.36,3.18,3.18,0,0,1,2.26-.87A3,3,0,0,1,82,54Zm0,1.11a4.66,4.66,0,0,0-.87-0.7A2,2,0,0,0,80,54.08a3.08,3.08,0,0,0-1,.15,2.14,2.14,0,0,0-.74.44,2.39,2.39,0,0,0-.67,1.83A2.14,2.14,0,0,0,79,58.76a3.08,3.08,0,0,0,1,.15,2.78,2.78,0,0,0,2-1V55.09Z" fill="#40ff9f"/><path d="M87,58.47a2.32,2.32,0,0,0,1.64.55,3.92,3.92,0,0,0,1.76-.35,1,1,0,0,1,.42-0.12,0.5,0.5,0,0,1,.34.15,0.45,0.45,0,0,1,.16.34,0.54,0.54,0,0,1-.29.51l-0.53.27A3.57,3.57,0,0,1,90,60a5.15,5.15,0,0,1-1.42.18A3.5,3.5,0,0,1,86,59.25a3.65,3.65,0,0,1-1-2.69,3.94,3.94,0,0,1,.78-2.5,3.38,3.38,0,0,1,4.91-.12,3.56,3.56,0,0,1,.83,2.4,0.6,0.6,0,0,1-.59.61H86.27A2.3,2.3,0,0,0,87,58.47ZM88.31,54a1.87,1.87,0,0,0-1.81,1.08,2.15,2.15,0,0,0-.23.92h4a2.07,2.07,0,0,0-.71-1.53A2,2,0,0,0,88.28,54h0Z" fill="#40ff9f"/><path d="M95.43,59q1.52,0,1.52-1a0.5,0.5,0,0,0-.3-0.46,3.79,3.79,0,0,0-.76-0.28l-1-.25a4.53,4.53,0,0,1-1-.36,2.26,2.26,0,0,1-.76-0.61,1.43,1.43,0,0,1-.3-0.92A2.46,2.46,0,0,1,93,54.24a1.82,1.82,0,0,1,.49-0.68,3,3,0,0,1,2-.61,5.87,5.87,0,0,1,2,.34,0.58,0.58,0,0,1,.4.55,0.5,0.5,0,0,1-.16.35,0.44,0.44,0,0,1-.31.16,1.28,1.28,0,0,1-.37-0.07,4.78,4.78,0,0,0-1.43-.2,2.11,2.11,0,0,0-1.18.27A0.79,0.79,0,0,0,94,55a0.61,0.61,0,0,0,.31.57,3,3,0,0,0,.76.31l1,0.25a4.64,4.64,0,0,1,1,.34,1.79,1.79,0,0,1,1,1.7,1.76,1.76,0,0,1-.66,1.42,3,3,0,0,1-2,.6A5,5,0,0,1,93,59.57a0.49,0.49,0,0,1-.21-0.4,0.61,0.61,0,0,1,.15-0.42,0.44,0.44,0,0,1,.33-0.17,1.07,1.07,0,0,1,.42.11A4.19,4.19,0,0,0,95.43,59Z" fill="#40ff9f"/><path d="M256.7,8.72a0.57,0.57,0,0,1,.17.42,0.55,0.55,0,0,1-.17.41,0.58,0.58,0,0,1-.42.16h-4.22a0.56,0.56,0,0,1-.57-0.54,0.58,0.58,0,0,1,.16-0.42,0.55,0.55,0,0,1,.41-0.17h1.63v-7l-1.39.68-0.14,0a0.78,0.78,0,0,1-.25,0,0.49,0.49,0,0,1-.35-0.18,0.66,0.66,0,0,1-.16-0.48,0.55,0.55,0,0,1,.36-0.5l1.86-1a0.85,0.85,0,0,1,.38,0h0.29a0.63,0.63,0,0,1,.46.19,0.63,0.63,0,0,1,.19.46V8.54h1.35A0.57,0.57,0,0,1,256.7,8.72Z" fill="#fff"/><path d="M265.52,8.72a0.57,0.57,0,0,1,.17.42,0.54,0.54,0,0,1-.17.41,0.58,0.58,0,0,1-.42.16h-5.27a0.72,0.72,0,0,1-.52-0.2A0.68,0.68,0,0,1,259.1,9a2.21,2.21,0,0,1,.4-1.3,5.3,5.3,0,0,1,1-1.07,12.68,12.68,0,0,1,1.32-.93q0.71-.44,1.32-0.87a5.85,5.85,0,0,0,1-.9,1.42,1.42,0,0,0,.4-0.93,2.2,2.2,0,0,0-.12-0.77,1.32,1.32,0,0,0-.36-0.53,2.46,2.46,0,0,0-1.64-.53,5.76,5.76,0,0,0-2.34.49,0.69,0.69,0,0,1-.31.07,0.43,0.43,0,0,1-.32-0.15,0.61,0.61,0,0,1-.15-0.41,0.5,0.5,0,0,1,.3-0.45,6.68,6.68,0,0,1,3-.7,3.29,3.29,0,0,1,2.23.76,2.52,2.52,0,0,1,.92,2,3.29,3.29,0,0,1-1.22,2.39,10.78,10.78,0,0,1-1.2.93l-1.25.84q-0.6.4-1.08,0.79a2.24,2.24,0,0,0-.66.79h4.75A0.57,0.57,0,0,1,265.52,8.72Z" fill="#fff"/><path d="M268.65,2.7a0.77,0.77,0,0,1,.76.76V3.54a0.77,0.77,0,0,1-.76.76h-0.14a0.77,0.77,0,0,1-.76-0.76V3.46a0.77,0.77,0,0,1,.76-0.76h0.14Zm0,5.44a0.77,0.77,0,0,1,.76.76V9a0.77,0.77,0,0,1-.76.77h-0.14A0.77,0.77,0,0,1,267.75,9V8.9a0.77,0.77,0,0,1,.76-0.73h0.14v0Z" fill="#fff"/><path d="M274.64,0a3.5,3.5,0,0,1,1.61.36,3.17,3.17,0,0,1,1.16,1,5.94,5.94,0,0,1,.93,3.54,6,6,0,0,1-.93,3.55,3.52,3.52,0,0,1-5.55,0,6,6,0,0,1-.93-3.55,5.94,5.94,0,0,1,.93-3.54A3.2,3.2,0,0,1,274.64,0Zm0,8.66a2,2,0,0,0,1.83-1,5.13,5.13,0,0,0,.63-2.75,5.1,5.1,0,0,0-.63-2.77,2.17,2.17,0,0,0-3.67,0,5.19,5.19,0,0,0-.62,2.73,5.13,5.13,0,0,0,.63,2.75A2,2,0,0,0,274.64,8.69Z" fill="#fff"/><path d="M283.22,0a3.5,3.5,0,0,1,1.61.36,3.17,3.17,0,0,1,1.16,1,5.94,5.94,0,0,1,.93,3.54A6,6,0,0,1,286,8.49a3.52,3.52,0,0,1-5.55,0,6,6,0,0,1-.93-3.55,5.94,5.94,0,0,1,.93-3.54A3.2,3.2,0,0,1,283.22,0Zm0,8.66a2,2,0,0,0,1.83-1,5.13,5.13,0,0,0,.63-2.75,5.1,5.1,0,0,0-.63-2.77,2.17,2.17,0,0,0-3.67,0,5.19,5.19,0,0,0-.62,2.73,5.13,5.13,0,0,0,.63,2.75A2,2,0,0,0,283.22,8.69Z" fill="#fff"/><path d="M464.9,8.72a0.57,0.57,0,0,1,.17.42,0.55,0.55,0,0,1-.17.41,0.58,0.58,0,0,1-.42.16h-4.22a0.56,0.56,0,0,1-.57-0.54,0.58,0.58,0,0,1,.16-0.42,0.55,0.55,0,0,1,.41-0.17h1.63v-7l-1.39.68-0.14,0a0.78,0.78,0,0,1-.25,0,0.49,0.49,0,0,1-.36-0.18,0.66,0.66,0,0,1-.16-0.48,0.55,0.55,0,0,1,.36-0.5l1.86-1a0.85,0.85,0,0,1,.38-0.1h0.29a0.63,0.63,0,0,1,.46.19,0.63,0.63,0,0,1,.19.46v7.8h1.35A0.57,0.57,0,0,1,464.9,8.72Z" fill="#fff"/><path d="M468.73,4.23A4.73,4.73,0,0,1,471,3.67a3.19,3.19,0,0,1,2.38.87,3,3,0,0,1,.81,2.21,2.75,2.75,0,0,1-2.06,2.84,5.1,5.1,0,0,1-1.67.25A5.36,5.36,0,0,1,467.54,9a0.5,0.5,0,0,1-.27-0.44,0.69,0.69,0,0,1,.18-0.44A0.45,0.45,0,0,1,467.8,8a1.1,1.1,0,0,1,.48.15,4.34,4.34,0,0,0,2,.49q2,0,2.47-1A2,2,0,0,0,473,6.69a1.68,1.68,0,0,0-.57-1.34,2.06,2.06,0,0,0-1.4-.49,4.32,4.32,0,0,0-2.25.59,1.15,1.15,0,0,1-.57.16,0.85,0.85,0,0,1-.55-0.21,0.71,0.71,0,0,1-.26-0.58,1.69,1.69,0,0,1,0-.33L468,0.85a0.8,0.8,0,0,1,.24-0.5,0.69,0.69,0,0,1,.5-0.18h4.39a0.58,0.58,0,0,1,.59.59,0.54,0.54,0,0,1-.17.41,0.58,0.58,0,0,1-.42.16h-4Z" fill="#fff"/><path d="M476.85,2.7a0.77,0.77,0,0,1,.76.76V3.54a0.77,0.77,0,0,1-.76.76h-0.14a0.77,0.77,0,0,1-.76-0.76V3.46a0.77,0.77,0,0,1,.76-0.76h0.14Zm0,5.44a0.77,0.77,0,0,1,.76.76V9a0.77,0.77,0,0,1-.76.77h-0.14A0.77,0.77,0,0,1,475.95,9V8.9a0.77,0.77,0,0,1,.76-0.73h0.14v0Z" fill="#fff"/><path d="M482.84,0a3.5,3.5,0,0,1,1.61.36,3.17,3.17,0,0,1,1.16,1,5.94,5.94,0,0,1,.93,3.54,6,6,0,0,1-.93,3.55,3.52,3.52,0,0,1-5.55,0,6,6,0,0,1-.93-3.55,5.94,5.94,0,0,1,.93-3.54A3.2,3.2,0,0,1,482.84,0Zm0,8.66a2,2,0,0,0,1.83-1,5.13,5.13,0,0,0,.63-2.75,5.1,5.1,0,0,0-.63-2.77,2.17,2.17,0,0,0-3.67,0,5.19,5.19,0,0,0-.62,2.73A5.13,5.13,0,0,0,481,7.68,2,2,0,0,0,482.84,8.69Z" fill="#fff"/><path d="M491.42,0A3.5,3.5,0,0,1,493,.39a3.17,3.17,0,0,1,1.16,1,5.94,5.94,0,0,1,.93,3.54,6,6,0,0,1-.93,3.55,3.52,3.52,0,0,1-5.55,0,6,6,0,0,1-.93-3.55,5.94,5.94,0,0,1,.93-3.54A3.2,3.2,0,0,1,491.42,0Zm0,8.66a2,2,0,0,0,1.83-1,5.13,5.13,0,0,0,.63-2.75,5.1,5.1,0,0,0-.63-2.77,2.17,2.17,0,0,0-3.67,0A5.19,5.19,0,0,0,489,4.94a5.13,5.13,0,0,0,.63,2.75A2,2,0,0,0,491.42,8.69Z" fill="#fff"/><path d="M673.1,8.72a0.57,0.57,0,0,1,.17.42,0.55,0.55,0,0,1-.17.41,0.58,0.58,0,0,1-.42.16h-4.22a0.56,0.56,0,0,1-.57-0.54A0.58,0.58,0,0,1,668,8.75a0.55,0.55,0,0,1,.41-0.17h1.63v-7l-1.39.68-0.14,0a0.78,0.78,0,0,1-.25,0A0.49,0.49,0,0,1,668,2.17a0.66,0.66,0,0,1-.16-0.48,0.55,0.55,0,0,1,.36-0.5l1.86-1a0.85,0.85,0,0,1,.38-0.1h0.29a0.63,0.63,0,0,1,.46.19,0.63,0.63,0,0,1,.19.46v7.8h1.35A0.57,0.57,0,0,1,673.1,8.72Z" fill="#fff"/><path d="M682.11,2.53a2,2,0,0,1-.13.74,2.09,2.09,0,0,1-.35.59,2.52,2.52,0,0,1-1.11.72A3.52,3.52,0,0,1,682,5.5a2.36,2.36,0,0,1,.56,1.67A2.29,2.29,0,0,1,681.75,9a5.05,5.05,0,0,1-5.68,0,2.27,2.27,0,0,1-.81-1.79,2.38,2.38,0,0,1,.56-1.67,3.52,3.52,0,0,1,1.48-.92,2.23,2.23,0,0,1-1.45-1.31,2,2,0,0,1-.14-0.75,2.41,2.41,0,0,1,.16-0.85,2.19,2.19,0,0,1,.55-0.81,4.07,4.07,0,0,1,5,0A2.24,2.24,0,0,1,682.11,2.53Zm-3.2,6.22a2.59,2.59,0,0,0,1.89-.58,1.38,1.38,0,0,0,.52-1,1.73,1.73,0,0,0-.2-0.87,1.75,1.75,0,0,0-.54-0.57,2.8,2.8,0,0,0-1.66-.56,2.87,2.87,0,0,0-1.67.46A1.59,1.59,0,0,0,676.51,7,1.44,1.44,0,0,0,677,8.17,2.59,2.59,0,0,0,678.91,8.75Zm0-4.67a2.11,2.11,0,0,0,1.53-.51,1.34,1.34,0,0,0,.06-1.89l-0.11-.11a2.71,2.71,0,0,0-3,0,1.34,1.34,0,0,0-.48,1,1.41,1.41,0,0,0,.47,1A2.06,2.06,0,0,0,678.91,4.08Z" fill="#fff"/><path d="M685,2.7a0.77,0.77,0,0,1,.76.76V3.54a0.77,0.77,0,0,1-.76.76h-0.14a0.77,0.77,0,0,1-.76-0.76V3.46a0.77,0.77,0,0,1,.76-0.76H685Zm0,5.47a0.77,0.77,0,0,1,.76.76V9a0.77,0.77,0,0,1-.76.77h-0.14A0.77,0.77,0,0,1,684.1,9V8.9a0.77,0.77,0,0,1,.81-0.73H685Z" fill="#fff"/><path d="M691,0a3.5,3.5,0,0,1,1.61.36,3.17,3.17,0,0,1,1.16,1,5.94,5.94,0,0,1,.93,3.54,6,6,0,0,1-.93,3.55,3.52,3.52,0,0,1-5.55,0,6,6,0,0,1-.93-3.55,5.94,5.94,0,0,1,.93-3.54A3.2,3.2,0,0,1,691,0Zm0,8.66a2,2,0,0,0,1.83-1,5.14,5.14,0,0,0,.63-2.75,5.11,5.11,0,0,0-.59-2.77,2.17,2.17,0,0,0-3.67,0,5.2,5.2,0,0,0-.62,2.73,5.13,5.13,0,0,0,.63,2.75A2,2,0,0,0,691,8.69Z" fill="#fff"/><path d="M699.62,0a3.51,3.51,0,0,1,1.61.36,3.17,3.17,0,0,1,1.16,1,5.94,5.94,0,0,1,.93,3.54,6,6,0,0,1-.93,3.55,3.52,3.52,0,0,1-5.55,0,6,6,0,0,1-.93-3.55,5.94,5.94,0,0,1,.93-3.54A3.2,3.2,0,0,1,699.62,0Zm0,8.66a2,2,0,0,0,1.83-1,5.13,5.13,0,0,0,.63-2.75,5.1,5.1,0,0,0-.63-2.77,2.17,2.17,0,0,0-3.67,0,5.18,5.18,0,0,0-.62,2.73,5.13,5.13,0,0,0,.63,2.75A2,2,0,0,0,699.62,8.69Z" fill="#fff"/><path d="M881.54,8.72a0.57,0.57,0,0,1,.17.42,0.54,0.54,0,0,1-.17.41,0.58,0.58,0,0,1-.42.16h-5.27a0.72,0.72,0,0,1-.52-0.2,0.68,0.68,0,0,1-.2-0.51,2.21,2.21,0,0,1,.4-1.3,5.29,5.29,0,0,1,1-1.07,12.62,12.62,0,0,1,1.32-.93q0.71-.44,1.32-0.87a5.83,5.83,0,0,0,1-.9,1.43,1.43,0,0,0,.4-0.93,2.22,2.22,0,0,0-.12-0.77,1.32,1.32,0,0,0-.36-0.53,2.45,2.45,0,0,0-1.65-.53,5.76,5.76,0,0,0-2.34.49,0.68,0.68,0,0,1-.31.07,0.44,0.44,0,0,1-.32-0.15,0.61,0.61,0,0,1-.15-0.41,0.5,0.5,0,0,1,.3-0.45,6.69,6.69,0,0,1,3-.7,3.29,3.29,0,0,1,2.23.76,2.52,2.52,0,0,1,.92,2,3.28,3.28,0,0,1-1.22,2.39,10.73,10.73,0,0,1-1.2.93l-1.25.84q-0.6.4-1.08,0.79a2.24,2.24,0,0,0-.66.79h4.75A0.57,0.57,0,0,1,881.54,8.72Z" fill="#fff"/><path d="M889.88,8.72a0.57,0.57,0,0,1,.12.45,0.55,0.55,0,0,1-.17.41,0.58,0.58,0,0,1-.42.16h-4.22a0.56,0.56,0,0,1-.52-0.57,0.58,0.58,0,0,1,.16-0.42,0.55,0.55,0,0,1,.41-0.17h1.63v-7l-1.39.68-0.14,0a0.78,0.78,0,0,1-.25,0,0.49,0.49,0,0,1-.36-0.18,0.66,0.66,0,0,1-.16-0.48,0.55,0.55,0,0,1,.35-0.5l1.86-1a0.86,0.86,0,0,1,.38-0.1h0.29a0.63,0.63,0,0,1,.46.19,0.63,0.63,0,0,1,.19.46v7.8h1.35A0.57,0.57,0,0,1,889.88,8.72Z" fill="#fff"/><path d="M893.25,2.7a0.77,0.77,0,0,1,.76.76V3.54a0.77,0.77,0,0,1-.76.76h-0.14a0.77,0.77,0,0,1-.76-0.76V3.46a0.77,0.77,0,0,1,.76-0.76h0.14Zm0,5.44a0.77,0.77,0,0,1,.76.76V9a0.77,0.77,0,0,1-.76.77h-0.14A0.77,0.77,0,0,1,892.35,9V8.9a0.77,0.77,0,0,1,.76-0.73h0.14v0Z" fill="#fff"/><path d="M899.24,0a3.5,3.5,0,0,1,1.61.36,3.17,3.17,0,0,1,1.16,1,5.94,5.94,0,0,1,.93,3.54A6,6,0,0,1,902,8.49a3.52,3.52,0,0,1-5.55,0,6,6,0,0,1-.93-3.55,5.94,5.94,0,0,1,.93-3.54A3.2,3.2,0,0,1,899.24,0Zm0,8.66a2,2,0,0,0,1.83-1,5.14,5.14,0,0,0,.63-2.75,5.11,5.11,0,0,0-.63-2.77,2.17,2.17,0,0,0-3.67,0,5.2,5.2,0,0,0-.62,2.73,5.13,5.13,0,0,0,.63,2.75A2,2,0,0,0,899.24,8.69Z" fill="#fff"/><path d="M907.82,0a3.51,3.51,0,0,1,1.61.36,3.17,3.17,0,0,1,1.16,1,5.94,5.94,0,0,1,.93,3.54,6,6,0,0,1-.93,3.55,3.52,3.52,0,0,1-5.55,0,6,6,0,0,1-.93-3.55A5.94,5.94,0,0,1,905,1.4,3.2,3.2,0,0,1,907.82,0Zm0,8.66a2,2,0,0,0,1.83-1,5.13,5.13,0,0,0,.63-2.75,5.1,5.1,0,0,0-.63-2.77,2.17,2.17,0,0,0-3.65,0,5.18,5.18,0,0,0-.62,2.73A5.13,5.13,0,0,0,906,7.68,2,2,0,0,0,907.82,8.69Z" fill="#fff"/><path d="M146.57,30.27h0a6.07,6.07,0,0,1,6.07,6.07h0a6.07,6.07,0,0,1-6.07,6.07h0a6.07,6.07,0,0,1-6.07-6.07h0A6.07,6.07,0,0,1,146.57,30.27Z" fill="#ef6262"/><path d="M121.91,47.91h0A6.07,6.07,0,0,1,128,54h0A6.07,6.07,0,0,1,121.91,60h0A6.07,6.07,0,0,1,115.84,54h0A6.07,6.07,0,0,1,121.91,47.91Z" fill="#40ff9f"/><path d="M161,30.27h0a6.07,6.07,0,0,1,6.07,6.07h0A6.07,6.07,0,0,1,161,42.41h0A6.07,6.07,0,0,1,155,36.34h0A6.07,6.07,0,0,1,161,30.27Z" fill="#ef6262"/><path d="M179.35,30.27h0a6.07,6.07,0,0,1,6.07,6.07h0a6.07,6.07,0,0,1-6.07,6.07h0a6.07,6.07,0,0,1-6.07-6.07h0A6.07,6.07,0,0,1,179.35,30.27Z" fill="#ef6262"/><path d="M300.8,30.27h0a6.07,6.07,0,0,1,6.07,6.07h0a6.07,6.07,0,0,1-6.07,6.07h0a6.07,6.07,0,0,1-6.07-6.07h0A6.07,6.07,0,0,1,300.8,30.27Z" fill="#ef6262"/><path d="M318.55,30.27h0a6.07,6.07,0,0,1,6.07,6.07h0a6.07,6.07,0,0,1-6.07,6.07h0a6.07,6.07,0,0,1-6.07-6.07h0A6.07,6.07,0,0,1,318.55,30.27Z" fill="#ef6262"/><path d="M414.16,30.27h0a6.07,6.07,0,0,1,6.07,6.07h0a6.07,6.07,0,0,1-6.07,6.07h0a6.07,6.07,0,0,1-6.07-6.07h0A6.07,6.07,0,0,1,414.16,30.27Z" fill="#ef6262"/><path d="M812.86,30.27h0a6.07,6.07,0,0,1,6.07,6.07h0a6.07,6.07,0,0,1-6.07,6.07h0a6.07,6.07,0,0,1-6.07-6.07h0A6.07,6.07,0,0,1,812.86,30.27Z" fill="#ef6262"/><path d="M962.51,30.27h0a6.07,6.07,0,0,1,6.07,6.07h0a6.07,6.07,0,0,1-6.07,6.07h0a6.07,6.07,0,0,1-6.07-6.07h0A6.07,6.07,0,0,1,962.51,30.27Z" fill="#ef6262"/><path d="M907.1,30.27h0a6.07,6.07,0,0,1,6.07,6.07h0a6.07,6.07,0,0,1-6.07,6.07h0A6.07,6.07,0,0,1,901,36.34h0A6.07,6.07,0,0,1,907.1,30.27Z" fill="#ef6262"/><path d="M194.86,47.91h0A6.07,6.07,0,0,1,200.93,54h0A6.07,6.07,0,0,1,194.86,60h0A6.07,6.07,0,0,1,188.79,54h0A6.07,6.07,0,0,1,194.86,47.91Z" fill="#40ff9f"/><path d="M200.37,47.91h0A6.07,6.07,0,0,1,206.44,54h0A6.07,6.07,0,0,1,200.37,60h0A6.07,6.07,0,0,1,194.3,54h0A6.07,6.07,0,0,1,200.37,47.91Z" fill="#40ff9f"/><path d="M217.53,47.91h0A6.07,6.07,0,0,1,223.6,54h0A6.07,6.07,0,0,1,217.53,60h0A6.07,6.07,0,0,1,211.46,54h0A6.07,6.07,0,0,1,217.53,47.91Z" fill="#40ff9f"/><path d="M246.93,47.91h0A6.07,6.07,0,0,1,253,54h0A6.07,6.07,0,0,1,246.93,60h0A6.07,6.07,0,0,1,240.86,54h0A6.07,6.07,0,0,1,246.93,47.91Z" fill="#40ff9f"/><path d="M299.27,47.91h0A6.07,6.07,0,0,1,305.34,54h0A6.07,6.07,0,0,1,299.27,60h0A6.07,6.07,0,0,1,293.2,54h0A6.07,6.07,0,0,1,299.27,47.91Z" fill="#40ff9f"/><path d="M331.43,47.91h0A6.07,6.07,0,0,1,337.5,54h0A6.07,6.07,0,0,1,331.43,60h0A6.07,6.07,0,0,1,325.36,54h0A6.07,6.07,0,0,1,331.43,47.91Z" fill="#40ff9f"/><path d="M357.15,47.91h0A6.07,6.07,0,0,1,363.22,54h0A6.07,6.07,0,0,1,357.15,60h0A6.07,6.07,0,0,1,351.08,54h0A6.07,6.07,0,0,1,357.15,47.91Z" fill="#40ff9f"/><path d="M430.45,47.91h0A6.07,6.07,0,0,1,436.52,54h0A6.07,6.07,0,0,1,430.45,60h0A6.07,6.07,0,0,1,424.38,54h0A6.07,6.07,0,0,1,430.45,47.91Z" fill="#40ff9f"/><path d="M434.11,47.91h0A6.07,6.07,0,0,1,440.18,54h0A6.07,6.07,0,0,1,434.11,60h0A6.07,6.07,0,0,1,428,54h0A6.07,6.07,0,0,1,434.11,47.91Z" fill="#40ff9f"/><path d="M440.17,47.91h0A6.07,6.07,0,0,1,446.24,54h0A6.07,6.07,0,0,1,440.17,60h0A6.07,6.07,0,0,1,434.1,54h0A6.07,6.07,0,0,1,440.17,47.91Z" fill="#40ff9f"/><path d="M454.89,47.91h0A6.07,6.07,0,0,1,461,54h0A6.07,6.07,0,0,1,454.89,60h0A6.07,6.07,0,0,1,448.82,54h0A6.07,6.07,0,0,1,454.89,47.91Z" fill="#40ff9f"/><path d="M531,47.91h0A6.07,6.07,0,0,1,537.05,54h0A6.07,6.07,0,0,1,531,60h0A6.07,6.07,0,0,1,524.91,54h0A6.07,6.07,0,0,1,531,47.91Z" fill="#40ff9f"/><path d="M611.25,47.91h0A6.07,6.07,0,0,1,617.32,54h0A6.07,6.07,0,0,1,611.25,60h0A6.07,6.07,0,0,1,605.18,54h0A6.07,6.07,0,0,1,611.25,47.91Z" fill="#40ff9f"/><path d="M409.76,47.91h0A6.07,6.07,0,0,1,415.83,54h0A6.07,6.07,0,0,1,409.76,60h0A6.07,6.07,0,0,1,403.69,54h0A6.07,6.07,0,0,1,409.76,47.91Z" fill="#40ff9f"/><path d="M306.87,47.91h0A6.07,6.07,0,0,1,312.94,54h0A6.07,6.07,0,0,1,306.87,60h0A6.07,6.07,0,0,1,300.8,54h0A6.07,6.07,0,0,1,306.87,47.91Z" fill="#40ff9f"/><path d="M313.89,47.91h0A6.07,6.07,0,0,1,320,54h0A6.07,6.07,0,0,1,313.89,60h0A6.07,6.07,0,0,1,307.82,54h0A6.07,6.07,0,0,1,313.89,47.91Z" fill="#40ff9f"/><path d="M317.72,47.91h0A6.07,6.07,0,0,1,323.79,54h0A6.07,6.07,0,0,1,317.72,60h0A6.07,6.07,0,0,1,311.65,54h0A6.07,6.07,0,0,1,317.72,47.91Z" fill="#40ff9f"/><path d="M264.52,47.91h0A6.07,6.07,0,0,1,270.59,54h0A6.07,6.07,0,0,1,264.52,60h0A6.07,6.07,0,0,1,258.45,54h0A6.07,6.07,0,0,1,264.52,47.91Z" fill="#40ff9f"/><path d="M269.71,47.91h0A6.07,6.07,0,0,1,275.78,54h0A6.07,6.07,0,0,1,269.71,60h0A6.07,6.07,0,0,1,263.64,54h0A6.07,6.07,0,0,1,269.71,47.91Z" fill="#40ff9f"/><path d="M135.33,47.91h11.24A6.07,6.07,0,0,1,152.64,54h0A6.07,6.07,0,0,1,146.57,60H135.33A6.07,6.07,0,0,1,129.26,54h0A6.07,6.07,0,0,1,135.33,47.91Z" fill="#40ff9f"/><path d="M283.5,47.91h11.24A6.07,6.07,0,0,1,300.81,54h0A6.07,6.07,0,0,1,294.74,60H283.5A6.07,6.07,0,0,1,277.43,54h0A6.07,6.07,0,0,1,283.5,47.91Z" fill="#40ff9f"/><path d="M240.07,47.91h0A6.07,6.07,0,0,1,246.14,54h0A6.07,6.07,0,0,1,240.07,60h0A6.07,6.07,0,0,1,234,54h0A6.07,6.07,0,0,1,240.07,47.91Z" fill="#40ff9f"/><path d="M257.64,47.91h0A6.07,6.07,0,0,1,263.71,54h0A6.07,6.07,0,0,1,257.64,60h0A6.07,6.07,0,0,1,251.57,54h0A6.07,6.07,0,0,1,257.64,47.91Z" fill="#40ff9f"/><path d="M277.11,47.91h0A6.07,6.07,0,0,1,283.18,54h0A6.07,6.07,0,0,1,277.11,60h0A6.07,6.07,0,0,1,271,54h0A6.07,6.07,0,0,1,277.11,47.91Z" fill="#40ff9f"/><path d="M325.62,47.91h0A6.07,6.07,0,0,1,331.69,54h0A6.07,6.07,0,0,1,325.62,60h0A6.07,6.07,0,0,1,319.55,54h0A6.07,6.07,0,0,1,325.62,47.91Z" fill="#40ff9f"/><path d="M374.87,47.91h0A6.07,6.07,0,0,1,380.94,54h0A6.07,6.07,0,0,1,374.87,60h0A6.07,6.07,0,0,1,368.8,54h0A6.07,6.07,0,0,1,374.87,47.91Z" fill="#40ff9f"/><path d="M423.59,47.91h0A6.07,6.07,0,0,1,429.66,54h0A6.07,6.07,0,0,1,423.59,60h0A6.07,6.07,0,0,1,417.52,54h0A6.07,6.07,0,0,1,423.59,47.91Z" fill="#40ff9f"/><path d="M507.06,47.91h0A6.07,6.07,0,0,1,513.13,54h0A6.07,6.07,0,0,1,507.06,60h0A6.07,6.07,0,0,1,501,54h0A6.07,6.07,0,0,1,507.06,47.91Z" fill="#40ff9f"/><path d="M621.24,47.91h0A6.07,6.07,0,0,1,627.31,54h0A6.07,6.07,0,0,1,621.24,60h0A6.07,6.07,0,0,1,615.17,54h0A6.07,6.07,0,0,1,621.24,47.91Z" fill="#40ff9f"/><path d="M825.76,47.91h0A6.07,6.07,0,0,1,831.83,54h0A6.07,6.07,0,0,1,825.76,60h0A6.07,6.07,0,0,1,819.69,54h0A6.07,6.07,0,0,1,825.76,47.91Z" fill="#40ff9f"/><path d="M906.59,47.91h0A6.07,6.07,0,0,1,912.66,54h0A6.07,6.07,0,0,1,906.59,60h0A6.07,6.07,0,0,1,900.52,54h0A6.07,6.07,0,0,1,906.59,47.91Z" fill="#40ff9f"/><path d="M933.32,47.91h0A6.07,6.07,0,0,1,939.39,54h0A6.07,6.07,0,0,1,933.32,60h0A6.07,6.07,0,0,1,927.25,54h0A6.07,6.07,0,0,1,933.32,47.91Z" fill="#40ff9f"/><path d="M948,47.91h0A6.07,6.07,0,0,1,954.08,54h0A6.07,6.07,0,0,1,948,60h0A6.07,6.07,0,0,1,941.94,54h0A6.07,6.07,0,0,1,948,47.91Z" fill="#40ff9f"/><path d="M968.78,47.91h0A6.07,6.07,0,0,1,974.85,54h0A6.07,6.07,0,0,1,968.78,60h0A6.07,6.07,0,0,1,962.71,54h0A6.07,6.07,0,0,1,968.78,47.91Z" fill="#40ff9f"/><path d="M972.83,47.91h0A6.07,6.07,0,0,1,978.9,54h0A6.07,6.07,0,0,1,972.83,60h0A6.07,6.07,0,0,1,966.76,54h0A6.07,6.07,0,0,1,972.83,47.91Z" fill="#40ff9f"/><path d="M912.65,47.91h0A6.07,6.07,0,0,1,918.72,54h0A6.07,6.07,0,0,1,912.65,60h0A6.07,6.07,0,0,1,906.58,54h0A6.07,6.07,0,0,1,912.65,47.91Z" fill="#40ff9f"/><path d="M847,47.91h0A6.07,6.07,0,0,1,853.12,54h0A6.07,6.07,0,0,1,847,60h0A6.07,6.07,0,0,1,841,54h0A6.07,6.07,0,0,1,847,47.91Z" fill="#40ff9f"/><path d="M852.43,47.91h0A6.07,6.07,0,0,1,858.5,54h0A6.07,6.07,0,0,1,852.43,60h0A6.07,6.07,0,0,1,846.36,54h0A6.07,6.07,0,0,1,852.43,47.91Z" fill="#40ff9f"/><path d="M666.88,47.91h7.87A6.07,6.07,0,0,1,680.82,54h0A6.07,6.07,0,0,1,674.75,60h-7.87A6.07,6.07,0,0,1,660.81,54h0A6.07,6.07,0,0,1,666.88,47.91Z" fill="#40ff9f"/><path d="M833.11,47.91H841A6.07,6.07,0,0,1,847,54h0A6.07,6.07,0,0,1,841,60h-7.87A6.07,6.07,0,0,1,827,54h0A6.07,6.07,0,0,1,833.11,47.91Z" fill="#40ff9f"/><path d="M923,47.91h0.29A6.07,6.07,0,0,1,929.41,54h0A6.07,6.07,0,0,1,923.34,60H923A6.07,6.07,0,0,1,917,54h0A6.07,6.07,0,0,1,923,47.91Z" fill="#40ff9f"/></svg>