<svg xmlns="http://www.w3.org/2000/svg" width="318.55" height="233.8" viewBox="0 0 318.55 233.8"><title>nubis</title><polygon points="227.62 120.72 214.42 113.08 227.62 105.44 227.62 120.72" fill="#00dcff"/><polygon points="214.42 113.08 227.62 105.44 214.42 97.8 214.42 113.08" fill="#00dcff"/><polygon points="227.62 105.44 214.42 97.8 227.62 90.02 227.62 105.44" fill="#a3f2ff"/><polygon points="121.49 136 108.15 128.36 121.49 120.72 121.49 136" fill="#14bef0"/><polygon points="108.15 143.64 94.95 136 108.15 128.36 108.15 143.64" fill="#00dcff"/><polygon points="108.15 143.64 121.49 136 108.15 128.36 108.15 143.64" fill="#14bef0"/><polygon points="201.09 105.44 187.89 97.8 201.09 90.02 201.09 105.44" fill="#a3f2ff"/><polygon points="214.42 113.08 201.09 105.44 214.42 97.8 214.42 113.08" fill="#14bef0"/><polygon points="201.09 120.72 187.89 113.08 201.09 105.44 201.09 120.72" fill="#00dcff"/><polygon points="201.09 105.44 214.42 97.8 201.09 90.02 201.09 105.44" fill="#a3f2ff"/><polygon points="201.09 120.72 214.42 113.08 201.09 105.44 201.09 120.72" fill="#14bef0"/><polygon points="187.89 113.08 201.09 105.44 187.89 97.8 187.89 113.08" fill="#00dcff"/><polygon points="187.89 113.08 174.55 105.44 187.89 97.8 187.89 113.08" fill="#a3f2ff"/><polygon points="201.09 120.72 187.89 113.08 201.09 105.44 201.09 120.72" fill="#14bef0"/><polygon points="187.89 128.36 174.55 120.72 187.89 113.08 187.89 128.36" fill="#00dcff"/><polygon points="187.89 113.08 201.09 105.44 187.89 97.8 187.89 113.08" fill="#a3f2ff"/><polygon points="187.89 128.36 201.09 120.72 187.89 113.08 187.89 128.36" fill="#14bef0"/><polygon points="174.55 120.72 187.89 113.08 174.55 105.44 174.55 120.72" fill="#00dcff"/><polygon points="214.42 113.08 201.09 105.44 214.42 97.8 214.42 113.08" fill="#a3f2ff"/><polygon points="214.42 128.36 201.09 120.72 214.42 113.08 214.42 128.36" fill="#00dcff"/><polygon points="214.42 113.08 227.62 105.44 214.42 97.8 214.42 113.08" fill="#a3f2ff"/><polygon points="201.09 120.72 214.42 113.08 201.09 105.44 201.09 120.72" fill="#00dcff"/><polygon points="201.09 120.72 187.89 113.08 201.09 105.44 201.09 120.72" fill="#a3f2ff"/><polygon points="214.42 128.36 201.09 120.72 214.42 113.08 214.42 128.36" fill="#14bef0"/><polygon points="201.09 136 187.89 128.36 201.09 120.72 201.09 136" fill="#00dcff"/><polygon points="201.09 120.72 214.42 113.08 201.09 105.44 201.09 120.72" fill="#a3f2ff"/><polygon points="201.09 136 214.42 128.36 201.09 120.72 201.09 136" fill="#14bef0"/><polygon points="187.89 128.36 201.09 120.72 187.89 113.08 187.89 128.36" fill="#00dcff"/><polygon points="201.09 90.02 187.89 82.38 201.09 74.74 201.09 90.02" fill="#a3f2ff"/><polygon points="214.42 97.8 201.09 90.02 214.42 82.38 214.42 97.8" fill="#14bef0"/><polygon points="201.09 105.44 187.89 97.8 201.09 90.02 201.09 105.44" fill="#00dcff"/><polygon points="201.09 105.44 214.42 97.8 201.09 90.02 201.09 105.44" fill="#14bef0"/><polygon points="187.89 97.8 201.09 90.02 187.89 82.38 187.89 97.8" fill="#00dcff"/><polygon points="187.89 97.8 174.55 90.02 187.89 82.38 187.89 97.8" fill="#a3f2ff"/><polygon points="201.09 105.44 187.89 97.8 201.09 90.02 201.09 105.44" fill="#14bef0"/><polygon points="187.89 113.08 174.55 105.44 187.89 97.8 187.89 113.08" fill="#00dcff"/><polygon points="187.89 97.8 201.09 90.02 187.89 82.38 187.89 97.8" fill="#a3f2ff"/><polygon points="187.89 113.08 201.09 105.44 187.89 97.8 187.89 113.08" fill="#14bef0"/><polygon points="174.55 105.44 187.89 97.8 174.55 90.02 174.55 105.44" fill="#00dcff"/><polygon points="214.42 113.08 201.09 105.44 214.42 97.8 214.42 113.08" fill="#00dcff"/><polygon points="201.09 105.44 214.42 97.8 201.09 90.02 201.09 105.44" fill="#00dcff"/><polygon points="201.09 105.44 187.89 97.8 201.09 90.02 201.09 105.44" fill="#a3f2ff"/><polygon points="214.42 113.08 201.09 105.44 214.42 97.8 214.42 113.08" fill="#14bef0"/><polygon points="201.09 120.72 187.89 113.08 201.09 105.44 201.09 120.72" fill="#00dcff"/><polygon points="201.09 105.44 214.42 97.8 201.09 90.02 201.09 105.44" fill="#a3f2ff"/><polygon points="201.09 120.72 214.42 113.08 201.09 105.44 201.09 120.72" fill="#14bef0"/><polygon points="187.89 113.08 201.09 105.44 187.89 97.8 187.89 113.08" fill="#00dcff"/><polygon points="161.36 113.08 148.02 105.44 161.36 97.8 161.36 113.08" fill="#a3f2ff"/><polygon points="174.55 120.72 161.36 113.08 174.55 105.44 174.55 120.72" fill="#14bef0"/><polygon points="161.36 128.36 148.02 120.72 161.36 113.08 161.36 128.36" fill="#00dcff"/><polygon points="161.36 113.08 174.55 105.44 161.36 97.8 161.36 113.08" fill="#a3f2ff"/><polygon points="161.36 128.36 174.55 120.72 161.36 113.08 161.36 128.36" fill="#14bef0"/><polygon points="148.02 120.72 161.36 113.08 148.02 105.44 148.02 120.72" fill="#00dcff"/><polygon points="148.02 120.72 134.69 113.08 148.02 105.44 148.02 120.72" fill="#a3f2ff"/><polygon points="161.36 128.36 148.02 120.72 161.36 113.08 161.36 128.36" fill="#14bef0"/><polygon points="148.02 136 134.69 128.36 148.02 120.72 148.02 136" fill="#00dcff"/><polygon points="148.02 120.72 161.36 113.08 148.02 105.44 148.02 120.72" fill="#a3f2ff"/><polygon points="148.02 136 161.36 128.36 148.02 120.72 148.02 136" fill="#14bef0"/><polygon points="134.69 128.36 148.02 120.72 134.69 113.08 134.69 128.36" fill="#00dcff"/><polygon points="174.55 120.72 161.36 113.08 174.55 105.44 174.55 120.72" fill="#a3f2ff"/><polygon points="187.89 128.36 174.55 120.72 187.89 113.08 187.89 128.36" fill="#14bef0"/><polygon points="174.55 136 161.36 128.36 174.55 120.72 174.55 136" fill="#00dcff"/><polygon points="174.55 120.72 187.89 113.08 174.55 105.44 174.55 120.72" fill="#a3f2ff"/><polygon points="174.55 136 187.89 128.36 174.55 120.72 174.55 136" fill="#14bef0"/><polygon points="161.36 128.36 174.55 120.72 161.36 113.08 161.36 128.36" fill="#00dcff"/><polygon points="161.36 128.36 148.02 120.72 161.36 113.08 161.36 128.36" fill="#a3f2ff"/><polygon points="174.55 136 161.36 128.36 174.55 120.72 174.55 136" fill="#14bef0"/><polygon points="161.36 143.64 148.02 136 161.36 128.36 161.36 143.64" fill="#00dcff"/><polygon points="161.36 128.36 174.55 120.72 161.36 113.08 161.36 128.36" fill="#a3f2ff"/><polygon points="161.36 143.64 174.55 136 161.36 128.36 161.36 143.64" fill="#14bef0"/><polygon points="148.02 136 161.36 128.36 148.02 120.72 148.02 136" fill="#00dcff"/><polygon points="161.36 97.8 148.02 90.02 161.36 82.38 161.36 97.8" fill="#a3f2ff"/><polygon points="174.55 105.44 161.36 97.8 174.55 90.02 174.55 105.44" fill="#14bef0"/><polygon points="161.36 113.08 148.02 105.44 161.36 97.8 161.36 113.08" fill="#00dcff"/><polygon points="161.36 97.8 174.55 90.02 161.36 82.38 161.36 97.8" fill="#a3f2ff"/><polygon points="161.36 113.08 174.55 105.44 161.36 97.8 161.36 113.08" fill="#14bef0"/><polygon points="148.02 105.44 161.36 97.8 148.02 90.02 148.02 105.44" fill="#00dcff"/><polygon points="148.02 105.44 134.69 97.8 148.02 90.02 148.02 105.44" fill="#a3f2ff"/><polygon points="161.36 113.08 148.02 105.44 161.36 97.8 161.36 113.08" fill="#14bef0"/><polygon points="148.02 120.72 134.69 113.08 148.02 105.44 148.02 120.72" fill="#00dcff"/><polygon points="148.02 105.44 161.36 97.8 148.02 90.02 148.02 105.44" fill="#a3f2ff"/><polygon points="148.02 120.72 161.36 113.08 148.02 105.44 148.02 120.72" fill="#14bef0"/><polygon points="134.69 113.08 148.02 105.44 134.69 97.8 134.69 113.08" fill="#00dcff"/><polygon points="174.55 105.44 161.36 97.8 174.55 90.02 174.55 105.44" fill="#a3f2ff"/><polygon points="187.89 113.08 174.55 105.44 187.89 97.8 187.89 113.08" fill="#14bef0"/><polygon points="174.55 120.72 161.36 113.08 174.55 105.44 174.55 120.72" fill="#00dcff"/><polygon points="174.55 105.44 187.89 97.8 174.55 90.02 174.55 105.44" fill="#a3f2ff"/><polygon points="174.55 120.72 187.89 113.08 174.55 105.44 174.55 120.72" fill="#14bef0"/><polygon points="161.36 113.08 174.55 105.44 161.36 97.8 161.36 113.08" fill="#00dcff"/><polygon points="161.36 113.08 148.02 105.44 161.36 97.8 161.36 113.08" fill="#a3f2ff"/><polygon points="174.55 120.72 161.36 113.08 174.55 105.44 174.55 120.72" fill="#14bef0"/><polygon points="161.36 128.36 148.02 120.72 161.36 113.08 161.36 128.36" fill="#00dcff"/><polygon points="161.36 113.08 174.55 105.44 161.36 97.8 161.36 113.08" fill="#a3f2ff"/><polygon points="161.36 128.36 174.55 120.72 161.36 113.08 161.36 128.36" fill="#14bef0"/><polygon points="148.02 120.72 161.36 113.08 148.02 105.44 148.02 120.72" fill="#00dcff"/><polygon points="134.69 128.36 121.49 120.72 134.69 113.08 134.69 128.36" fill="#a3f2ff"/><polygon points="148.02 136 134.69 128.36 148.02 120.72 148.02 136" fill="#14bef0"/><polygon points="134.69 143.64 121.49 136 134.69 128.36 134.69 143.64" fill="#00dcff"/><polygon points="134.69 128.36 148.02 120.72 134.69 113.08 134.69 128.36" fill="#a3f2ff"/><polygon points="134.69 143.64 148.02 136 134.69 128.36 134.69 143.64" fill="#14bef0"/><polygon points="121.49 136 134.69 128.36 121.49 120.72 121.49 136" fill="#00dcff"/><polygon points="121.49 136 108.15 128.36 121.49 120.72 121.49 136" fill="#a3f2ff"/><polygon points="134.69 143.64 121.49 136 134.69 128.36 134.69 143.64" fill="#14bef0"/><polygon points="121.49 151.42 108.15 143.64 121.49 136 121.49 151.42" fill="#00dcff"/><polygon points="121.49 136 134.69 128.36 121.49 120.72 121.49 136" fill="#a3f2ff"/><polygon points="121.49 151.42 134.69 143.64 121.49 136 121.49 151.42" fill="#14bef0"/><polygon points="108.15 143.64 121.49 136 108.15 128.36 108.15 143.64" fill="#00dcff"/><polygon points="148.02 136 134.69 128.36 148.02 120.72 148.02 136" fill="#a3f2ff"/><polygon points="161.36 143.64 148.02 136 161.36 128.36 161.36 143.64" fill="#14bef0"/><polygon points="148.02 151.42 134.69 143.64 148.02 136 148.02 151.42" fill="#00dcff"/><polygon points="148.02 136 161.36 128.36 148.02 120.72 148.02 136" fill="#a3f2ff"/><polygon points="148.02 151.42 161.36 143.64 148.02 136 148.02 151.42" fill="#14bef0"/><polygon points="134.69 143.64 148.02 136 134.69 128.36 134.69 143.64" fill="#00dcff"/><polygon points="134.69 143.64 121.49 136 134.69 128.36 134.69 143.64" fill="#a3f2ff"/><polygon points="148.02 151.42 134.69 143.64 148.02 136 148.02 151.42" fill="#14bef0"/><polygon points="134.69 159.06 121.49 151.42 134.69 143.64 134.69 159.06" fill="#00dcff"/><polygon points="134.69 143.64 148.02 136 134.69 128.36 134.69 143.64" fill="#a3f2ff"/><polygon points="134.69 159.06 148.02 151.42 134.69 143.64 134.69 159.06" fill="#14bef0"/><polygon points="121.49 151.42 134.69 143.64 121.49 136 121.49 151.42" fill="#00dcff"/><polygon points="134.69 113.08 121.49 105.44 134.69 97.8 134.69 113.08" fill="#a3f2ff"/><polygon points="148.02 120.72 134.69 113.08 148.02 105.44 148.02 120.72" fill="#14bef0"/><polygon points="134.69 128.36 121.49 120.72 134.69 113.08 134.69 128.36" fill="#00dcff"/><polygon points="134.69 113.08 148.02 105.44 134.69 97.8 134.69 113.08" fill="#a3f2ff"/><polygon points="134.69 128.36 148.02 120.72 134.69 113.08 134.69 128.36" fill="#14bef0"/><polygon points="121.49 120.72 134.69 113.08 121.49 105.44 121.49 120.72" fill="#00dcff"/><polygon points="121.49 120.72 108.15 113.08 121.49 105.44 121.49 120.72" fill="#a3f2ff"/><polygon points="134.69 128.36 121.49 120.72 134.69 113.08 134.69 128.36" fill="#14bef0"/><polygon points="121.49 136 108.15 128.36 121.49 120.72 121.49 136" fill="#00dcff"/><polygon points="121.49 120.72 134.69 113.08 121.49 105.44 121.49 120.72" fill="#a3f2ff"/><polygon points="121.49 136 134.69 128.36 121.49 120.72 121.49 136" fill="#14bef0"/><polygon points="148.02 120.72 134.69 113.08 148.02 105.44 148.02 120.72" fill="#a3f2ff"/><polygon points="161.36 128.36 148.02 120.72 161.36 113.08 161.36 128.36" fill="#14bef0"/><polygon points="148.02 136 134.69 128.36 148.02 120.72 148.02 136" fill="#00dcff"/><polygon points="148.02 120.72 161.36 113.08 148.02 105.44 148.02 120.72" fill="#a3f2ff"/><polygon points="148.02 136 161.36 128.36 148.02 120.72 148.02 136" fill="#14bef0"/><polygon points="134.69 128.36 148.02 120.72 134.69 113.08 134.69 128.36" fill="#00dcff"/><polygon points="134.69 128.36 121.49 120.72 134.69 113.08 134.69 128.36" fill="#a3f2ff"/><polygon points="148.02 136 134.69 128.36 148.02 120.72 148.02 136" fill="#14bef0"/><polygon points="134.69 143.64 121.49 136 134.69 128.36 134.69 143.64" fill="#00dcff"/><polygon points="134.69 128.36 148.02 120.72 134.69 113.08 134.69 128.36" fill="#a3f2ff"/><polygon points="134.69 143.64 148.02 136 134.69 128.36 134.69 143.64" fill="#14bef0"/><polygon points="121.49 136 134.69 128.36 121.49 120.72 121.49 136" fill="#00dcff"/><polygon points="187.89 128.36 174.55 120.72 187.89 113.08 187.89 128.36" fill="#a3f2ff"/><polygon points="201.09 136 187.89 128.36 201.09 120.72 201.09 136" fill="#14bef0"/><polygon points="187.89 143.64 174.55 136 187.89 128.36 187.89 143.64" fill="#00dcff"/><polygon points="187.89 128.36 201.09 120.72 187.89 113.08 187.89 128.36" fill="#a3f2ff"/><polygon points="187.89 143.64 201.09 136 187.89 128.36 187.89 143.64" fill="#14bef0"/><polygon points="174.55 136 187.89 128.36 174.55 120.72 174.55 136" fill="#00dcff"/><polygon points="174.55 136 161.36 128.36 174.55 120.72 174.55 136" fill="#a3f2ff"/><polygon points="187.89 143.64 174.55 136 187.89 128.36 187.89 143.64" fill="#14bef0"/><polygon points="174.55 151.42 161.36 143.64 174.55 136 174.55 151.42" fill="#00dcff"/><polygon points="174.55 136 187.89 128.36 174.55 120.72 174.55 136" fill="#a3f2ff"/><polygon points="174.55 151.42 187.89 143.64 174.55 136 174.55 151.42" fill="#14bef0"/><polygon points="161.36 143.64 174.55 136 161.36 128.36 161.36 143.64" fill="#00dcff"/><polygon points="201.09 136 187.89 128.36 201.09 120.72 201.09 136" fill="#a3f2ff"/><polygon points="201.09 151.42 187.89 143.64 201.09 136 201.09 151.42" fill="#00dcff"/><polygon points="201.09 136 214.42 128.36 201.09 120.72 201.09 136" fill="#a3f2ff"/><polygon points="187.89 143.64 201.09 136 187.89 128.36 187.89 143.64" fill="#00dcff"/><polygon points="187.89 143.64 174.55 136 187.89 128.36 187.89 143.64" fill="#a3f2ff"/><polygon points="187.89 159.06 174.55 151.42 187.89 143.64 187.89 159.06" fill="#00dcff"/><polygon points="187.89 143.64 201.09 136 187.89 128.36 187.89 143.64" fill="#a3f2ff"/><polygon points="174.55 151.42 187.89 143.64 174.55 136 174.55 151.42" fill="#00dcff"/><polygon points="187.89 113.08 174.55 105.44 187.89 97.8 187.89 113.08" fill="#a3f2ff"/><polygon points="201.09 120.72 187.89 113.08 201.09 105.44 201.09 120.72" fill="#14bef0"/><polygon points="187.89 128.36 174.55 120.72 187.89 113.08 187.89 128.36" fill="#00dcff"/><polygon points="187.89 113.08 201.09 105.44 187.89 97.8 187.89 113.08" fill="#a3f2ff"/><polygon points="187.89 128.36 201.09 120.72 187.89 113.08 187.89 128.36" fill="#14bef0"/><polygon points="174.55 120.72 187.89 113.08 174.55 105.44 174.55 120.72" fill="#00dcff"/><polygon points="174.55 120.72 161.36 113.08 174.55 105.44 174.55 120.72" fill="#a3f2ff"/><polygon points="187.89 128.36 174.55 120.72 187.89 113.08 187.89 128.36" fill="#14bef0"/><polygon points="174.55 136 161.36 128.36 174.55 120.72 174.55 136" fill="#00dcff"/><polygon points="174.55 120.72 187.89 113.08 174.55 105.44 174.55 120.72" fill="#a3f2ff"/><polygon points="174.55 136 187.89 128.36 174.55 120.72 174.55 136" fill="#14bef0"/><polygon points="161.36 128.36 174.55 120.72 161.36 113.08 161.36 128.36" fill="#00dcff"/><polygon points="201.09 120.72 187.89 113.08 201.09 105.44 201.09 120.72" fill="#a3f2ff"/><polygon points="214.42 128.36 201.09 120.72 214.42 113.08 214.42 128.36" fill="#14bef0"/><polygon points="201.09 136 187.89 128.36 201.09 120.72 201.09 136" fill="#00dcff"/><polygon points="201.09 120.72 214.42 113.08 201.09 105.44 201.09 120.72" fill="#a3f2ff"/><polygon points="201.09 136 214.42 128.36 201.09 120.72 201.09 136" fill="#14bef0"/><polygon points="187.89 128.36 201.09 120.72 187.89 113.08 187.89 128.36" fill="#00dcff"/><polygon points="187.89 128.36 174.55 120.72 187.89 113.08 187.89 128.36" fill="#a3f2ff"/><polygon points="201.09 136 187.89 128.36 201.09 120.72 201.09 136" fill="#14bef0"/><polygon points="187.89 143.64 174.55 136 187.89 128.36 187.89 143.64" fill="#00dcff"/><polygon points="187.89 128.36 201.09 120.72 187.89 113.08 187.89 128.36" fill="#a3f2ff"/><polygon points="174.55 136 187.89 128.36 174.55 120.72 174.55 136" fill="#00dcff"/><polygon points="161.36 143.64 148.02 136 161.36 128.36 161.36 143.64" fill="#a3f2ff"/><polygon points="174.55 151.42 161.36 143.64 174.55 136 174.55 151.42" fill="#14bef0"/><polygon points="161.36 159.06 148.02 151.42 161.36 143.64 161.36 159.06" fill="#00dcff"/><polygon points="161.36 143.64 174.55 136 161.36 128.36 161.36 143.64" fill="#a3f2ff"/><polygon points="161.36 159.06 174.55 151.42 161.36 143.64 161.36 159.06" fill="#14bef0"/><polygon points="148.02 151.42 161.36 143.64 148.02 136 148.02 151.42" fill="#00dcff"/><polygon points="148.02 151.42 134.69 143.64 148.02 136 148.02 151.42" fill="#a3f2ff"/><polygon points="148.02 166.7 134.69 159.06 148.02 151.42 148.02 166.7" fill="#00dcff"/><polygon points="148.02 151.42 161.36 143.64 148.02 136 148.02 151.42" fill="#a3f2ff"/><polygon points="134.69 159.06 148.02 151.42 134.69 143.64 134.69 159.06" fill="#00dcff"/><polygon points="174.55 151.42 161.36 143.64 174.55 136 174.55 151.42" fill="#a3f2ff"/><polygon points="174.55 151.42 187.89 143.64 174.55 136 174.55 151.42" fill="#a3f2ff"/><polygon points="161.36 128.36 148.02 120.72 161.36 113.08 161.36 128.36" fill="#a3f2ff"/><polygon points="174.55 136 161.36 128.36 174.55 120.72 174.55 136" fill="#14bef0"/><polygon points="161.36 143.64 148.02 136 161.36 128.36 161.36 143.64" fill="#00dcff"/><polygon points="161.36 128.36 174.55 120.72 161.36 113.08 161.36 128.36" fill="#a3f2ff"/><polygon points="161.36 143.64 174.55 136 161.36 128.36 161.36 143.64" fill="#14bef0"/><polygon points="148.02 136 161.36 128.36 148.02 120.72 148.02 136" fill="#00dcff"/><polygon points="148.02 136 134.69 128.36 148.02 120.72 148.02 136" fill="#a3f2ff"/><polygon points="161.36 143.64 148.02 136 161.36 128.36 161.36 143.64" fill="#14bef0"/><polygon points="148.02 136 161.36 128.36 148.02 120.72 148.02 136" fill="#a3f2ff"/><polygon points="174.55 136 161.36 128.36 174.55 120.72 174.55 136" fill="#a3f2ff"/><polygon points="174.55 136 187.89 128.36 174.55 120.72 174.55 136" fill="#a3f2ff"/><polygon points="161.36 143.64 174.55 136 161.36 128.36 161.36 143.64" fill="#00dcff"/><polygon points="161.36 143.64 148.02 136 161.36 128.36 161.36 143.64" fill="#a3f2ff"/><polygon points="161.36 143.64 174.55 136 161.36 128.36 161.36 143.64" fill="#a3f2ff"/><polygon points="161.36 82.38 148.02 74.74 161.36 67.1 161.36 82.38" fill="#a3f2ff"/><polygon points="174.55 90.02 161.36 82.38 174.55 74.74 174.55 90.02" fill="#14bef0"/><polygon points="161.36 97.8 148.02 90.02 161.36 82.38 161.36 97.8" fill="#00dcff"/><polygon points="161.36 82.38 174.55 74.74 161.36 67.1 161.36 82.38" fill="#a3f2ff"/><polygon points="161.36 97.8 174.55 90.02 161.36 82.38 161.36 97.8" fill="#14bef0"/><polygon points="148.02 90.02 161.36 82.38 148.02 74.74 148.02 90.02" fill="#00dcff"/><polygon points="148.02 90.02 134.69 82.38 148.02 74.74 148.02 90.02" fill="#a3f2ff"/><polygon points="161.36 97.8 148.02 90.02 161.36 82.38 161.36 97.8" fill="#14bef0"/><polygon points="148.02 105.44 134.69 97.8 148.02 90.02 148.02 105.44" fill="#00dcff"/><polygon points="148.02 90.02 161.36 82.38 148.02 74.74 148.02 90.02" fill="#a3f2ff"/><polygon points="148.02 105.44 161.36 97.8 148.02 90.02 148.02 105.44" fill="#14bef0"/><polygon points="134.69 97.8 148.02 90.02 134.69 82.38 134.69 97.8" fill="#00dcff"/><polygon points="174.55 90.02 161.36 82.38 174.55 74.74 174.55 90.02" fill="#a3f2ff"/><polygon points="187.89 97.8 174.55 90.02 187.89 82.38 187.89 97.8" fill="#14bef0"/><polygon points="174.55 105.44 161.36 97.8 174.55 90.02 174.55 105.44" fill="#00dcff"/><polygon points="174.55 90.02 187.89 82.38 174.55 74.74 174.55 90.02" fill="#a3f2ff"/><polygon points="174.55 105.44 187.89 97.8 174.55 90.02 174.55 105.44" fill="#14bef0"/><polygon points="161.36 97.8 174.55 90.02 161.36 82.38 161.36 97.8" fill="#00dcff"/><polygon points="161.36 97.8 148.02 90.02 161.36 82.38 161.36 97.8" fill="#a3f2ff"/><polygon points="174.55 105.44 161.36 97.8 174.55 90.02 174.55 105.44" fill="#14bef0"/><polygon points="161.36 113.08 148.02 105.44 161.36 97.8 161.36 113.08" fill="#00dcff"/><polygon points="161.36 97.8 174.55 90.02 161.36 82.38 161.36 97.8" fill="#a3f2ff"/><polygon points="161.36 113.08 174.55 105.44 161.36 97.8 161.36 113.08" fill="#14bef0"/><polygon points="148.02 105.44 161.36 97.8 148.02 90.02 148.02 105.44" fill="#00dcff"/><polygon points="161.36 67.1 148.02 59.46 161.36 51.82 161.36 67.1" fill="#a3f2ff"/><polygon points="174.55 74.74 161.36 67.1 174.55 59.46 174.55 74.74" fill="#14bef0"/><polygon points="161.36 82.38 148.02 74.74 161.36 67.1 161.36 82.38" fill="#00dcff"/><polygon points="161.36 67.1 174.55 59.46 161.36 51.82 161.36 67.1" fill="#a3f2ff"/><polygon points="161.36 82.38 174.55 74.74 161.36 67.1 161.36 82.38" fill="#14bef0"/><polygon points="148.02 74.74 161.36 67.1 148.02 59.46 148.02 74.74" fill="#00dcff"/><polygon points="148.02 74.74 134.69 67.1 148.02 59.46 148.02 74.74" fill="#a3f2ff"/><polygon points="161.36 82.38 148.02 74.74 161.36 67.1 161.36 82.38" fill="#14bef0"/><polygon points="148.02 90.02 134.69 82.38 148.02 74.74 148.02 90.02" fill="#00dcff"/><polygon points="148.02 74.74 161.36 67.1 148.02 59.46 148.02 74.74" fill="#a3f2ff"/><polygon points="148.02 90.02 161.36 82.38 148.02 74.74 148.02 90.02" fill="#14bef0"/><polygon points="134.69 82.38 148.02 74.74 134.69 67.1 134.69 82.38" fill="#00dcff"/><polygon points="174.55 74.74 161.36 67.1 174.55 59.46 174.55 74.74" fill="#a3f2ff"/><polygon points="187.89 82.38 174.55 74.74 187.89 67.1 187.89 82.38" fill="#14bef0"/><polygon points="174.55 90.02 161.36 82.38 174.55 74.74 174.55 90.02" fill="#00dcff"/><polygon points="174.55 74.74 187.89 67.1 174.55 59.46 174.55 74.74" fill="#a3f2ff"/><polygon points="174.55 90.02 187.89 82.38 174.55 74.74 174.55 90.02" fill="#14bef0"/><polygon points="161.36 82.38 174.55 74.74 161.36 67.1 161.36 82.38" fill="#00dcff"/><polygon points="161.36 82.38 148.02 74.74 161.36 67.1 161.36 82.38" fill="#a3f2ff"/><polygon points="174.55 90.02 161.36 82.38 174.55 74.74 174.55 90.02" fill="#14bef0"/><polygon points="161.36 97.8 148.02 90.02 161.36 82.38 161.36 97.8" fill="#00dcff"/><polygon points="161.36 82.38 174.55 74.74 161.36 67.1 161.36 82.38" fill="#a3f2ff"/><polygon points="161.36 97.8 174.55 90.02 161.36 82.38 161.36 97.8" fill="#14bef0"/><polygon points="148.02 90.02 161.36 82.38 148.02 74.74 148.02 90.02" fill="#00dcff"/><polygon points="134.69 97.8 121.49 90.02 134.69 82.38 134.69 97.8" fill="#a3f2ff"/><polygon points="148.02 105.44 134.69 97.8 148.02 90.02 148.02 105.44" fill="#14bef0"/><polygon points="134.69 113.08 121.49 105.44 134.69 97.8 134.69 113.08" fill="#00dcff"/><polygon points="134.69 97.8 148.02 90.02 134.69 82.38 134.69 97.8" fill="#a3f2ff"/><polygon points="134.69 113.08 148.02 105.44 134.69 97.8 134.69 113.08" fill="#14bef0"/><polygon points="121.49 105.44 134.69 97.8 121.49 90.02 121.49 105.44" fill="#00dcff"/><polygon points="134.69 113.08 121.49 105.44 134.69 97.8 134.69 113.08" fill="#14bef0"/><polygon points="121.49 105.44 134.69 97.8 121.49 90.02 121.49 105.44" fill="#a3f2ff"/><polygon points="121.49 120.72 134.69 113.08 121.49 105.44 121.49 120.72" fill="#14bef0"/><polygon points="148.02 105.44 134.69 97.8 148.02 90.02 148.02 105.44" fill="#a3f2ff"/><polygon points="161.36 113.08 148.02 105.44 161.36 97.8 161.36 113.08" fill="#14bef0"/><polygon points="148.02 120.72 134.69 113.08 148.02 105.44 148.02 120.72" fill="#00dcff"/><polygon points="148.02 105.44 161.36 97.8 148.02 90.02 148.02 105.44" fill="#a3f2ff"/><polygon points="148.02 120.72 161.36 113.08 148.02 105.44 148.02 120.72" fill="#14bef0"/><polygon points="134.69 113.08 148.02 105.44 134.69 97.8 134.69 113.08" fill="#00dcff"/><polygon points="134.69 113.08 121.49 105.44 134.69 97.8 134.69 113.08" fill="#a3f2ff"/><polygon points="148.02 120.72 134.69 113.08 148.02 105.44 148.02 120.72" fill="#14bef0"/><polygon points="134.69 113.08 148.02 105.44 134.69 97.8 134.69 113.08" fill="#a3f2ff"/><polygon points="134.69 128.36 148.02 120.72 134.69 113.08 134.69 128.36" fill="#14bef0"/><polygon points="148.02 90.02 134.69 82.38 148.02 74.74 148.02 90.02" fill="#14bef0"/><polygon points="134.69 97.8 121.49 90.02 134.69 82.38 134.69 97.8" fill="#00dcff"/><polygon points="134.69 82.38 148.02 74.74 134.69 67.1 134.69 82.38" fill="#a3f2ff"/><polygon points="134.69 97.8 148.02 90.02 134.69 82.38 134.69 97.8" fill="#14bef0"/><polygon points="134.69 97.8 121.49 90.02 134.69 82.38 134.69 97.8" fill="#14bef0"/><polygon points="121.49 105.44 134.69 97.8 121.49 90.02 121.49 105.44" fill="#14bef0"/><polygon points="148.02 90.02 134.69 82.38 148.02 74.74 148.02 90.02" fill="#a3f2ff"/><polygon points="161.36 97.8 148.02 90.02 161.36 82.38 161.36 97.8" fill="#14bef0"/><polygon points="148.02 105.44 134.69 97.8 148.02 90.02 148.02 105.44" fill="#00dcff"/><polygon points="148.02 90.02 161.36 82.38 148.02 74.74 148.02 90.02" fill="#a3f2ff"/><polygon points="148.02 105.44 161.36 97.8 148.02 90.02 148.02 105.44" fill="#14bef0"/><polygon points="134.69 97.8 148.02 90.02 134.69 82.38 134.69 97.8" fill="#00dcff"/><polygon points="148.02 105.44 134.69 97.8 148.02 90.02 148.02 105.44" fill="#14bef0"/><polygon points="134.69 113.08 148.02 105.44 134.69 97.8 134.69 113.08" fill="#14bef0"/><polygon points="187.89 97.8 174.55 90.02 187.89 82.38 187.89 97.8" fill="#a3f2ff"/><polygon points="201.09 105.44 187.89 97.8 201.09 90.02 201.09 105.44" fill="#14bef0"/><polygon points="187.89 113.08 174.55 105.44 187.89 97.8 187.89 113.08" fill="#00dcff"/><polygon points="187.89 97.8 201.09 90.02 187.89 82.38 187.89 97.8" fill="#a3f2ff"/><polygon points="187.89 113.08 201.09 105.44 187.89 97.8 187.89 113.08" fill="#14bef0"/><polygon points="174.55 105.44 187.89 97.8 174.55 90.02 174.55 105.44" fill="#00dcff"/><polygon points="174.55 105.44 161.36 97.8 174.55 90.02 174.55 105.44" fill="#a3f2ff"/><polygon points="187.89 113.08 174.55 105.44 187.89 97.8 187.89 113.08" fill="#14bef0"/><polygon points="174.55 120.72 161.36 113.08 174.55 105.44 174.55 120.72" fill="#00dcff"/><polygon points="174.55 105.44 187.89 97.8 174.55 90.02 174.55 105.44" fill="#a3f2ff"/><polygon points="174.55 120.72 187.89 113.08 174.55 105.44 174.55 120.72" fill="#14bef0"/><polygon points="161.36 113.08 174.55 105.44 161.36 97.8 161.36 113.08" fill="#00dcff"/><polygon points="201.09 105.44 187.89 97.8 201.09 90.02 201.09 105.44" fill="#a3f2ff"/><polygon points="201.09 120.72 187.89 113.08 201.09 105.44 201.09 120.72" fill="#00dcff"/><polygon points="201.09 120.72 214.42 113.08 201.09 105.44 201.09 120.72" fill="#14bef0"/><polygon points="187.89 113.08 201.09 105.44 187.89 97.8 187.89 113.08" fill="#00dcff"/><polygon points="187.89 113.08 174.55 105.44 187.89 97.8 187.89 113.08" fill="#a3f2ff"/><polygon points="201.09 120.72 187.89 113.08 201.09 105.44 201.09 120.72" fill="#14bef0"/><polygon points="187.89 128.36 174.55 120.72 187.89 113.08 187.89 128.36" fill="#00dcff"/><polygon points="187.89 113.08 201.09 105.44 187.89 97.8 187.89 113.08" fill="#a3f2ff"/><polygon points="187.89 128.36 201.09 120.72 187.89 113.08 187.89 128.36" fill="#14bef0"/><polygon points="174.55 120.72 187.89 113.08 174.55 105.44 174.55 120.72" fill="#00dcff"/><polygon points="187.89 82.38 174.55 74.74 187.89 67.1 187.89 82.38" fill="#a3f2ff"/><polygon points="187.89 97.8 174.55 90.02 187.89 82.38 187.89 97.8" fill="#00dcff"/><polygon points="187.89 97.8 201.09 90.02 187.89 82.38 187.89 97.8" fill="#14bef0"/><polygon points="174.55 90.02 187.89 82.38 174.55 74.74 174.55 90.02" fill="#00dcff"/><polygon points="174.55 90.02 161.36 82.38 174.55 74.74 174.55 90.02" fill="#a3f2ff"/><polygon points="187.89 97.8 174.55 90.02 187.89 82.38 187.89 97.8" fill="#14bef0"/><polygon points="174.55 105.44 161.36 97.8 174.55 90.02 174.55 105.44" fill="#00dcff"/><polygon points="174.55 90.02 187.89 82.38 174.55 74.74 174.55 90.02" fill="#a3f2ff"/><polygon points="174.55 105.44 187.89 97.8 174.55 90.02 174.55 105.44" fill="#14bef0"/><polygon points="161.36 97.8 174.55 90.02 161.36 82.38 161.36 97.8" fill="#00dcff"/><polygon points="201.09 105.44 187.89 97.8 201.09 90.02 201.09 105.44" fill="#00dcff"/><polygon points="187.89 97.8 201.09 90.02 187.89 82.38 187.89 97.8" fill="#00dcff"/><polygon points="187.89 113.08 174.55 105.44 187.89 97.8 187.89 113.08" fill="#00dcff"/><polygon points="174.55 105.44 187.89 97.8 174.55 90.02 174.55 105.44" fill="#00dcff"/><polygon points="161.36 113.08 148.02 105.44 161.36 97.8 161.36 113.08" fill="#a3f2ff"/><polygon points="174.55 120.72 161.36 113.08 174.55 105.44 174.55 120.72" fill="#14bef0"/><polygon points="161.36 128.36 148.02 120.72 161.36 113.08 161.36 128.36" fill="#00dcff"/><polygon points="161.36 113.08 174.55 105.44 161.36 97.8 161.36 113.08" fill="#a3f2ff"/><polygon points="161.36 128.36 174.55 120.72 161.36 113.08 161.36 128.36" fill="#14bef0"/><polygon points="148.02 120.72 161.36 113.08 148.02 105.44 148.02 120.72" fill="#00dcff"/><polygon points="148.02 120.72 134.69 113.08 148.02 105.44 148.02 120.72" fill="#a3f2ff"/><polygon points="161.36 128.36 148.02 120.72 161.36 113.08 161.36 128.36" fill="#14bef0"/><polygon points="148.02 120.72 161.36 113.08 148.02 105.44 148.02 120.72" fill="#a3f2ff"/><polygon points="148.02 136 161.36 128.36 148.02 120.72 148.02 136" fill="#14bef0"/><polygon points="174.55 120.72 161.36 113.08 174.55 105.44 174.55 120.72" fill="#a3f2ff"/><polygon points="174.55 136 161.36 128.36 174.55 120.72 174.55 136" fill="#00dcff"/><polygon points="174.55 120.72 187.89 113.08 174.55 105.44 174.55 120.72" fill="#a3f2ff"/><polygon points="161.36 128.36 174.55 120.72 161.36 113.08 161.36 128.36" fill="#00dcff"/><polygon points="161.36 97.8 148.02 90.02 161.36 82.38 161.36 97.8" fill="#a3f2ff"/><polygon points="174.55 105.44 161.36 97.8 174.55 90.02 174.55 105.44" fill="#14bef0"/><polygon points="161.36 113.08 148.02 105.44 161.36 97.8 161.36 113.08" fill="#00dcff"/><polygon points="161.36 97.8 174.55 90.02 161.36 82.38 161.36 97.8" fill="#a3f2ff"/><polygon points="161.36 113.08 174.55 105.44 161.36 97.8 161.36 113.08" fill="#14bef0"/><polygon points="148.02 105.44 161.36 97.8 148.02 90.02 148.02 105.44" fill="#00dcff"/><polygon points="121.49 151.42 108.15 143.64 121.49 136 121.49 151.42" fill="#a3f2ff"/><polygon points="134.69 159.06 121.49 151.42 134.69 143.64 134.69 159.06" fill="#14bef0"/><polygon points="121.49 166.7 108.15 159.06 121.49 151.42 121.49 166.7" fill="#00dcff"/><polygon points="121.49 151.42 134.69 143.64 121.49 136 121.49 151.42" fill="#a3f2ff"/><polygon points="121.49 166.7 134.69 159.06 121.49 151.42 121.49 166.7" fill="#14bef0"/><polygon points="108.15 159.06 121.49 151.42 108.15 143.64 108.15 159.06" fill="#00dcff"/><polygon points="108.15 159.06 94.95 151.42 108.15 143.64 108.15 159.06" fill="#a3f2ff"/><polygon points="121.49 166.7 108.15 159.06 121.49 151.42 121.49 166.7" fill="#14bef0"/><polygon points="108.15 174.34 94.95 166.7 108.15 159.06 108.15 174.34" fill="#00dcff"/><polygon points="108.15 159.06 121.49 151.42 108.15 143.64 108.15 159.06" fill="#a3f2ff"/><polygon points="108.15 174.34 121.49 166.7 108.15 159.06 108.15 174.34" fill="#14bef0"/><polygon points="94.95 166.7 108.15 159.06 94.95 151.42 94.95 166.7" fill="#00dcff"/><polygon points="134.69 159.06 121.49 151.42 134.69 143.64 134.69 159.06" fill="#a3f2ff"/><polygon points="134.69 174.34 121.49 166.7 134.69 159.06 134.69 174.34" fill="#00dcff"/><polygon points="121.49 166.7 134.69 159.06 121.49 151.42 121.49 166.7" fill="#00dcff"/><polygon points="121.49 166.7 108.15 159.06 121.49 151.42 121.49 166.7" fill="#a3f2ff"/><polygon points="121.49 166.7 134.69 159.06 121.49 151.42 121.49 166.7" fill="#a3f2ff"/><polygon points="121.49 151.42 108.15 143.64 121.49 136 121.49 151.42" fill="#00dcff"/><polygon points="121.49 151.42 134.69 143.64 121.49 136 121.49 151.42" fill="#14bef0"/><polygon points="108.15 143.64 121.49 136 108.15 128.36 108.15 143.64" fill="#00dcff"/><polygon points="121.49 151.42 108.15 143.64 121.49 136 121.49 151.42" fill="#14bef0"/><polygon points="108.15 159.06 121.49 151.42 108.15 143.64 108.15 159.06" fill="#14bef0"/><polygon points="134.69 159.06 121.49 151.42 134.69 143.64 134.69 159.06" fill="#00dcff"/><polygon points="121.49 151.42 134.69 143.64 121.49 136 121.49 151.42" fill="#00dcff"/><polygon points="161.36 82.38 148.02 74.74 161.36 67.1 161.36 82.38" fill="#a3f2ff"/><polygon points="174.55 90.02 161.36 82.38 174.55 74.74 174.55 90.02" fill="#14bef0"/><polygon points="161.36 97.8 148.02 90.02 161.36 82.38 161.36 97.8" fill="#00dcff"/><polygon points="161.36 82.38 174.55 74.74 161.36 67.1 161.36 82.38" fill="#a3f2ff"/><polygon points="161.36 97.8 174.55 90.02 161.36 82.38 161.36 97.8" fill="#14bef0"/><polygon points="148.02 90.02 161.36 82.38 148.02 74.74 148.02 90.02" fill="#00dcff"/><polygon points="148.02 90.02 134.69 82.38 148.02 74.74 148.02 90.02" fill="#a3f2ff"/><polygon points="161.36 97.8 148.02 90.02 161.36 82.38 161.36 97.8" fill="#14bef0"/><polygon points="148.02 90.02 161.36 82.38 148.02 74.74 148.02 90.02" fill="#a3f2ff"/><polygon points="174.55 90.02 161.36 82.38 174.55 74.74 174.55 90.02" fill="#a3f2ff"/><polygon points="174.55 90.02 187.89 82.38 174.55 74.74 174.55 90.02" fill="#a3f2ff"/><polygon points="161.36 97.8 174.55 90.02 161.36 82.38 161.36 97.8" fill="#00dcff"/><polygon points="161.36 97.8 148.02 90.02 161.36 82.38 161.36 97.8" fill="#a3f2ff"/><polygon points="161.36 97.8 174.55 90.02 161.36 82.38 161.36 97.8" fill="#a3f2ff"/><polygon points="161.36 67.1 148.02 59.46 161.36 51.82 161.36 67.1" fill="#a3f2ff"/><polygon points="174.55 74.74 161.36 67.1 174.55 59.46 174.55 74.74" fill="#14bef0"/><polygon points="161.36 82.38 148.02 74.74 161.36 67.1 161.36 82.38" fill="#00dcff"/><polygon points="161.36 67.1 174.55 59.46 161.36 51.82 161.36 67.1" fill="#a3f2ff"/><polygon points="161.36 82.38 174.55 74.74 161.36 67.1 161.36 82.38" fill="#14bef0"/><polygon points="148.02 74.74 161.36 67.1 148.02 59.46 148.02 74.74" fill="#00dcff"/><polygon points="161.36 82.38 148.02 74.74 161.36 67.1 161.36 82.38" fill="#14bef0"/><polygon points="148.02 74.74 161.36 67.1 148.02 59.46 148.02 74.74" fill="#a3f2ff"/><polygon points="148.02 90.02 161.36 82.38 148.02 74.74 148.02 90.02" fill="#14bef0"/><polygon points="174.55 74.74 161.36 67.1 174.55 59.46 174.55 74.74" fill="#a3f2ff"/><polygon points="174.55 90.02 161.36 82.38 174.55 74.74 174.55 90.02" fill="#00dcff"/><polygon points="161.36 82.38 174.55 74.74 161.36 67.1 161.36 82.38" fill="#00dcff"/><polygon points="161.36 82.38 148.02 74.74 161.36 67.1 161.36 82.38" fill="#a3f2ff"/><polygon points="161.36 82.38 174.55 74.74 161.36 67.1 161.36 82.38" fill="#a3f2ff"/><polygon points="227.62 90.02 214.42 97.8 201.09 105.44 214.42 113.08 201.09 120.72 201.09 136 214.42 128.36 227.62 120.72 240.96 113.08 240.96 97.8 227.62 105.44 227.62 90.02" fill="#14bef0"/><polygon points="148.02 151.42 134.69 159.06 134.69 143.64 121.49 151.42 121.49 166.7 121.49 181.98 134.69 174.34 148.02 166.7 161.36 159.06 161.36 143.64 148.02 136 148.02 151.42" fill="#14bef0"/><polygon points="187.89 82.38 201.09 90.02 201.09 74.74 187.89 82.38" fill="#14bef0"/><polygon points="187.89 113.08 201.09 105.44 201.09 90.02 187.89 97.8 174.55 105.44 174.55 120.72 161.36 128.36 161.36 143.64 174.55 136 174.55 151.42 174.55 166.7 187.89 159.06 201.09 151.42 201.09 136 187.89 128.36 187.89 113.08" fill="#14bef0"/><polygon points="148.02 120.72 161.36 113.08 161.36 97.8 148.02 105.44 148.02 120.72" fill="#14bef0"/><polygon points="121.49 136 134.69 143.64 134.69 128.36 121.49 136" fill="#14bef0"/><polygon points="174.55 74.74 174.55 59.46 161.36 67.1 161.36 82.38 161.36 97.8 174.55 90.02 187.89 82.38 187.89 67.1 174.55 74.74" fill="#14bef0"/><polygon points="94.95 181.98 108.15 174.34 108.15 159.06 94.95 166.7 94.95 181.98" fill="#14bef0"/><polygon points="239.84 80.3 239.84 89.74 248.04 85.02 248.04 75.71 239.84 80.3" fill="#14bef0"/><polygon points="80.37 116.28 90.37 110.58 90.37 99.05 80.37 104.75 80.37 116.28" fill="#14bef0"/><polygon points="94.95 120.72 94.95 136 108.15 128.36 94.95 120.72" fill="#00dcff"/><polygon points="174.55 166.7 174.55 151.42 174.55 136 161.36 143.64 161.36 159.06 174.55 166.7" fill="#00dcff"/><polygon points="108.15 97.8 108.15 113.08 121.49 120.72 134.69 128.36 134.69 143.64 148.02 151.42 148.02 136 161.36 143.64 161.36 128.36 148.02 120.72 148.02 105.44 134.69 97.8 121.49 90.02 121.49 105.44 108.15 97.8" fill="#00dcff"/><polygon points="121.49 90.02 134.69 82.38 121.49 74.74 121.49 90.02" fill="#00dcff"/><polygon points="161.36 113.08 174.55 120.72 174.55 105.44 161.36 97.8 161.36 113.08" fill="#00dcff"/><polygon points="94.95 136 94.95 151.42 108.15 159.06 108.15 174.34 121.49 181.98 121.49 166.7 121.49 151.42 108.15 143.64 94.95 136" fill="#00dcff"/><polygon points="81.62 174.34 94.95 181.98 94.95 166.7 81.62 159.06 81.62 174.34" fill="#00dcff"/><polygon points="187.89 128.36 201.09 136 201.09 120.72 187.89 113.08 187.89 128.36" fill="#00dcff"/><polygon points="231.79 75.71 231.79 85.02 239.84 89.74 239.84 80.3 231.79 75.71" fill="#00dcff"/><polygon points="161.36 67.1 148.02 59.46 148.02 74.74 134.69 67.1 134.69 82.38 148.02 90.02 161.36 97.8 161.36 82.38 161.36 67.1" fill="#00dcff"/><polygon points="70.51 110.58 80.37 116.28 80.37 104.75 70.51 99.05 70.51 110.58" fill="#00dcff"/><polygon points="227.62 105.44 240.96 97.8 227.62 90.02 227.62 105.44" fill="#a3f2ff"/><polygon points="201.09 90.02 201.09 105.44 214.42 97.8 227.62 90.02 214.42 82.38 201.09 90.02" fill="#a3f2ff"/><polygon points="121.49 105.44 121.49 90.02 108.15 97.8 121.49 105.44" fill="#a3f2ff"/><polygon points="121.49 74.74 134.69 82.38 134.69 67.1 121.49 74.74" fill="#a3f2ff"/><polygon points="134.69 82.38 121.49 90.02 134.69 97.8 148.02 105.44 161.36 97.8 148.02 90.02 134.69 82.38" fill="#a3f2ff"/><polygon points="201.09 74.74 187.89 67.1 187.89 82.38 201.09 74.74" fill="#a3f2ff"/><polygon points="174.55 90.02 161.36 97.8 174.55 105.44 187.89 97.8 201.09 90.02 187.89 82.38 174.55 90.02" fill="#a3f2ff"/><polygon points="148.02 120.72 161.36 128.36 174.55 120.72 161.36 113.08 148.02 120.72" fill="#a3f2ff"/><polygon points="134.69 159.06 148.02 151.42 134.69 143.64 134.69 159.06" fill="#a3f2ff"/><polygon points="134.69 128.36 121.49 120.72 108.15 113.08 94.95 120.72 108.15 128.36 94.95 136 108.15 143.64 121.49 151.42 134.69 143.64 121.49 136 134.69 128.36" fill="#a3f2ff"/><polygon points="148.02 59.46 134.69 67.1 148.02 74.74 148.02 59.46" fill="#a3f2ff"/><polygon points="187.89 67.1 174.55 59.46 174.55 74.74 187.89 67.1" fill="#a3f2ff"/><polygon points="81.62 159.06 94.95 166.7 108.15 159.06 94.95 151.42 81.62 159.06" fill="#a3f2ff"/><polygon points="201.09 120.72 214.42 113.08 201.09 105.44 187.89 113.08 201.09 120.72" fill="#a3f2ff"/><polygon points="248.04 75.71 239.84 70.99 231.79 75.71 239.84 80.3 248.04 75.71" fill="#a3f2ff"/><polygon points="174.55 59.46 161.36 51.82 148.02 59.46 161.36 67.1 174.55 59.46" fill="#a3f2ff"/><polygon points="80.37 93.35 70.51 99.05 80.37 104.75 90.37 99.05 80.37 93.35" fill="#a3f2ff"/></svg>