<?xml version="1.0" encoding="utf-8"?>
<!-- Generator: Adobe Illustrator 18.1.1, SVG Export Plug-In . SVG Version: 6.00 Build 0)  -->
<!DOCTYPE svg PUBLIC "-//W3C//DTD SVG 1.1//EN" "http://www.w3.org/Graphics/SVG/1.1/DTD/svg11.dtd">
<svg version="1.1" id="Laag_1" xmlns="http://www.w3.org/2000/svg" xmlns:xlink="http://www.w3.org/1999/xlink" x="0px" y="0px"
	 viewBox="236.6 374.7 127.8 93.8" enable-background="new 236.6 374.7 127.8 93.8" xml:space="preserve">
<g>
	<g>
		<polygon fill="#14BEF0" points="359.3,418.8 349.7,413.3 359.3,407.8 		"/>
		<polygon fill="#00DCFF" points="349.7,424.3 340.2,418.8 349.7,413.3 		"/>
		<polygon fill="#14BEF0" points="349.7,424.3 359.3,418.8 349.7,413.3 		"/>
		<polygon fill="#00DCFF" points="340.2,418.8 349.7,413.3 340.2,407.8 		"/>
		<polygon fill="#A3F2FF" points="349.7,413.3 340.2,407.8 349.7,402.2 		"/>
		<polygon fill="#A3F2FF" points="349.7,413.3 359.3,407.8 349.7,402.2 		"/>
	</g>
	<g>
		<polygon fill="#14BEF0" points="273.3,435.3 263.7,429.8 273.3,424.3 		"/>
		<polygon fill="#00DCFF" points="263.7,440.8 254.2,435.3 263.7,429.8 		"/>
		<polygon fill="#14BEF0" points="263.7,440.8 273.3,435.3 263.7,429.8 		"/>
		<polygon fill="#00DCFF" points="254.2,435.3 263.7,429.8 254.2,424.3 		"/>
		<polygon fill="#A3F2FF" points="263.7,429.8 254.2,424.3 263.7,418.8 		"/>
		<polygon fill="#A3F2FF" points="263.7,429.8 273.3,424.3 263.7,418.8 		"/>
	</g>
	<g>
		<polygon fill="#A3F2FF" points="330.6,413.3 321.1,407.8 330.6,402.2 		"/>
		<polygon fill="#14BEF0" points="340.2,418.8 330.6,413.3 340.2,407.8 		"/>
		<polygon fill="#00DCFF" points="330.6,424.3 321.1,418.8 330.6,413.3 		"/>
		<polygon fill="#A3F2FF" points="330.6,413.3 340.2,407.8 330.6,402.2 		"/>
		<polygon fill="#14BEF0" points="330.6,424.3 340.2,418.8 330.6,413.3 		"/>
		<polygon fill="#00DCFF" points="321.1,418.8 330.6,413.3 321.1,407.8 		"/>
		<polygon fill="#A3F2FF" points="321.1,418.8 311.5,413.3 321.1,407.8 		"/>
		<polygon fill="#14BEF0" points="330.6,424.3 321.1,418.8 330.6,413.3 		"/>
		<polygon fill="#00DCFF" points="321.1,429.8 311.5,424.3 321.1,418.8 		"/>
		<polygon fill="#A3F2FF" points="321.1,418.8 330.6,413.3 321.1,407.8 		"/>
		<polygon fill="#14BEF0" points="321.1,429.8 330.6,424.3 321.1,418.8 		"/>
		<polygon fill="#00DCFF" points="311.5,424.3 321.1,418.8 311.5,413.3 		"/>
		<polygon fill="#A3F2FF" points="340.2,418.8 330.6,413.3 340.2,407.8 		"/>
		<polygon fill="#14BEF0" points="349.7,424.3 340.2,418.8 349.7,413.3 		"/>
		<polygon fill="#00DCFF" points="340.2,429.8 330.6,424.3 340.2,418.8 		"/>
		<polygon fill="#A3F2FF" points="340.2,418.8 349.7,413.3 340.2,407.8 		"/>
		<polygon fill="#14BEF0" points="340.2,429.8 349.7,424.3 340.2,418.8 		"/>
		<polygon fill="#00DCFF" points="330.6,424.3 340.2,418.8 330.6,413.3 		"/>
		<polygon fill="#A3F2FF" points="330.6,424.3 321.1,418.8 330.6,413.3 		"/>
		<polygon fill="#14BEF0" points="340.2,429.8 330.6,424.3 340.2,418.8 		"/>
		<polygon fill="#00DCFF" points="330.6,435.3 321.1,429.8 330.6,424.3 		"/>
		<polygon fill="#A3F2FF" points="330.6,424.3 340.2,418.8 330.6,413.3 		"/>
		<polygon fill="#14BEF0" points="330.6,435.3 340.2,429.8 330.6,424.3 		"/>
		<polygon fill="#00DCFF" points="321.1,429.8 330.6,424.3 321.1,418.8 		"/>
		<polygon fill="#A3F2FF" points="330.6,402.2 321.1,396.7 330.6,391.2 		"/>
		<polygon fill="#14BEF0" points="340.2,407.8 330.6,402.2 340.2,396.7 		"/>
		<polygon fill="#00DCFF" points="330.6,413.3 321.1,407.8 330.6,402.2 		"/>
		<polygon fill="#14BEF0" points="330.6,413.3 340.2,407.8 330.6,402.2 		"/>
		<polygon fill="#00DCFF" points="321.1,407.8 330.6,402.2 321.1,396.7 		"/>
		<polygon fill="#A3F2FF" points="321.1,407.8 311.5,402.2 321.1,396.7 		"/>
		<polygon fill="#14BEF0" points="330.6,413.3 321.1,407.8 330.6,402.2 		"/>
		<polygon fill="#00DCFF" points="321.1,418.8 311.5,413.3 321.1,407.8 		"/>
		<polygon fill="#A3F2FF" points="321.1,407.8 330.6,402.2 321.1,396.7 		"/>
		<polygon fill="#14BEF0" points="321.1,418.8 330.6,413.3 321.1,407.8 		"/>
		<polygon fill="#00DCFF" points="311.5,413.3 321.1,407.8 311.5,402.2 		"/>
		<polygon fill="#A3F2FF" points="340.2,407.8 330.6,402.2 340.2,396.7 		"/>
		<polygon fill="#14BEF0" points="349.7,413.3 340.2,407.8 349.7,402.2 		"/>
		<polygon fill="#00DCFF" points="340.2,418.8 330.6,413.3 340.2,407.8 		"/>
		<polygon fill="#A3F2FF" points="340.2,407.8 349.7,402.2 340.2,396.7 		"/>
		<polygon fill="#14BEF0" points="340.2,418.8 349.7,413.3 340.2,407.8 		"/>
		<polygon fill="#00DCFF" points="330.6,413.3 340.2,407.8 330.6,402.2 		"/>
		<polygon fill="#A3F2FF" points="330.6,413.3 321.1,407.8 330.6,402.2 		"/>
		<polygon fill="#14BEF0" points="340.2,418.8 330.6,413.3 340.2,407.8 		"/>
		<polygon fill="#00DCFF" points="330.6,424.3 321.1,418.8 330.6,413.3 		"/>
		<polygon fill="#A3F2FF" points="330.6,413.3 340.2,407.8 330.6,402.2 		"/>
		<polygon fill="#14BEF0" points="330.6,424.3 340.2,418.8 330.6,413.3 		"/>
		<polygon fill="#00DCFF" points="321.1,418.8 330.6,413.3 321.1,407.8 		"/>
	</g>
	<polygon fill="#A3F2FF" points="302,418.8 292.4,413.3 302,407.8 	"/>
	<polygon fill="#14BEF0" points="311.5,424.3 302,418.8 311.5,413.3 	"/>
	<polygon fill="#00DCFF" points="302,429.8 292.4,424.3 302,418.8 	"/>
	<polygon fill="#A3F2FF" points="302,418.8 311.5,413.3 302,407.8 	"/>
	<polygon fill="#14BEF0" points="302,429.8 311.5,424.3 302,418.8 	"/>
	<polygon fill="#00DCFF" points="292.4,424.3 302,418.8 292.4,413.3 	"/>
	<polygon fill="#A3F2FF" points="292.4,424.3 282.8,418.8 292.4,413.3 	"/>
	<polygon fill="#14BEF0" points="302,429.8 292.4,424.3 302,418.8 	"/>
	<polygon fill="#00DCFF" points="292.4,435.3 282.8,429.8 292.4,424.3 	"/>
	<polygon fill="#A3F2FF" points="292.4,424.3 302,418.8 292.4,413.3 	"/>
	<polygon fill="#14BEF0" points="292.4,435.3 302,429.8 292.4,424.3 	"/>
	<polygon fill="#00DCFF" points="282.8,429.8 292.4,424.3 282.8,418.8 	"/>
	<polygon fill="#A3F2FF" points="311.5,424.3 302,418.8 311.5,413.3 	"/>
	<polygon fill="#14BEF0" points="321.1,429.8 311.5,424.3 321.1,418.8 	"/>
	<polygon fill="#00DCFF" points="311.5,435.3 302,429.8 311.5,424.3 	"/>
	<polygon fill="#A3F2FF" points="311.5,424.3 321.1,418.8 311.5,413.3 	"/>
	<polygon fill="#14BEF0" points="311.5,435.3 321.1,429.8 311.5,424.3 	"/>
	<polygon fill="#00DCFF" points="302,429.8 311.5,424.3 302,418.8 	"/>
	<polygon fill="#A3F2FF" points="302,429.8 292.4,424.3 302,418.8 	"/>
	<polygon fill="#14BEF0" points="311.5,435.3 302,429.8 311.5,424.3 	"/>
	<polygon fill="#00DCFF" points="302,440.8 292.4,435.3 302,429.8 	"/>
	<polygon fill="#A3F2FF" points="302,429.8 311.5,424.3 302,418.8 	"/>
	<polygon fill="#14BEF0" points="302,440.8 311.5,435.3 302,429.8 	"/>
	<polygon fill="#00DCFF" points="292.4,435.3 302,429.8 292.4,424.3 	"/>
	<polygon fill="#A3F2FF" points="302,407.8 292.4,402.2 302,396.7 	"/>
	<polygon fill="#14BEF0" points="311.5,413.3 302,407.8 311.5,402.2 	"/>
	<polygon fill="#00DCFF" points="302,418.8 292.4,413.3 302,407.8 	"/>
	<polygon fill="#A3F2FF" points="302,407.8 311.5,402.2 302,396.7 	"/>
	<polygon fill="#14BEF0" points="302,418.8 311.5,413.3 302,407.8 	"/>
	<polygon fill="#00DCFF" points="292.4,413.3 302,407.8 292.4,402.2 	"/>
	<polygon fill="#A3F2FF" points="292.4,413.3 282.8,407.8 292.4,402.2 	"/>
	<polygon fill="#14BEF0" points="302,418.8 292.4,413.3 302,407.8 	"/>
	<polygon fill="#00DCFF" points="292.4,424.3 282.8,418.8 292.4,413.3 	"/>
	<polygon fill="#A3F2FF" points="292.4,413.3 302,407.8 292.4,402.2 	"/>
	<polygon fill="#14BEF0" points="292.4,424.3 302,418.8 292.4,413.3 	"/>
	<polygon fill="#00DCFF" points="282.8,418.8 292.4,413.3 282.8,407.8 	"/>
	<polygon fill="#A3F2FF" points="311.5,413.3 302,407.8 311.5,402.2 	"/>
	<polygon fill="#14BEF0" points="321.1,418.8 311.5,413.3 321.1,407.8 	"/>
	<polygon fill="#00DCFF" points="311.5,424.3 302,418.8 311.5,413.3 	"/>
	<polygon fill="#A3F2FF" points="311.5,413.3 321.1,407.8 311.5,402.2 	"/>
	<polygon fill="#14BEF0" points="311.5,424.3 321.1,418.8 311.5,413.3 	"/>
	<polygon fill="#00DCFF" points="302,418.8 311.5,413.3 302,407.8 	"/>
	<polygon fill="#A3F2FF" points="302,418.8 292.4,413.3 302,407.8 	"/>
	<polygon fill="#14BEF0" points="311.5,424.3 302,418.8 311.5,413.3 	"/>
	<polygon fill="#00DCFF" points="302,429.8 292.4,424.3 302,418.8 	"/>
	<polygon fill="#A3F2FF" points="302,418.8 311.5,413.3 302,407.8 	"/>
	<polygon fill="#14BEF0" points="302,429.8 311.5,424.3 302,418.8 	"/>
	<polygon fill="#00DCFF" points="292.4,424.3 302,418.8 292.4,413.3 	"/>
	<polygon fill="#A3F2FF" points="282.8,429.8 273.3,424.3 282.8,418.8 	"/>
	<polygon fill="#14BEF0" points="292.4,435.3 282.8,429.8 292.4,424.3 	"/>
	<polygon fill="#00DCFF" points="282.8,440.8 273.3,435.3 282.8,429.8 	"/>
	<polygon fill="#A3F2FF" points="282.8,429.8 292.4,424.3 282.8,418.8 	"/>
	<polygon fill="#14BEF0" points="282.8,440.8 292.4,435.3 282.8,429.8 	"/>
	<polygon fill="#00DCFF" points="273.3,435.3 282.8,429.8 273.3,424.3 	"/>
	<polygon fill="#A3F2FF" points="273.3,435.3 263.7,429.8 273.3,424.3 	"/>
	<polygon fill="#14BEF0" points="282.8,440.8 273.3,435.3 282.8,429.8 	"/>
	<polygon fill="#00DCFF" points="273.3,446.4 263.7,440.8 273.3,435.3 	"/>
	<polygon fill="#A3F2FF" points="273.3,435.3 282.8,429.8 273.3,424.3 	"/>
	<polygon fill="#14BEF0" points="273.3,446.4 282.8,440.8 273.3,435.3 	"/>
	<polygon fill="#00DCFF" points="263.7,440.8 273.3,435.3 263.7,429.8 	"/>
	<polygon fill="#A3F2FF" points="292.4,435.3 282.8,429.8 292.4,424.3 	"/>
	<polygon fill="#14BEF0" points="302,440.8 292.4,435.3 302,429.8 	"/>
	<polygon fill="#00DCFF" points="292.4,446.4 282.8,440.8 292.4,435.3 	"/>
	<polygon fill="#A3F2FF" points="292.4,435.3 302,429.8 292.4,424.3 	"/>
	<polygon fill="#14BEF0" points="292.4,446.4 302,440.8 292.4,435.3 	"/>
	<polygon fill="#00DCFF" points="282.8,440.8 292.4,435.3 282.8,429.8 	"/>
	<polygon fill="#A3F2FF" points="282.8,440.8 273.3,435.3 282.8,429.8 	"/>
	<polygon fill="#14BEF0" points="292.4,446.4 282.8,440.8 292.4,435.3 	"/>
	<polygon fill="#00DCFF" points="282.8,451.9 273.3,446.4 282.8,440.8 	"/>
	<polygon fill="#A3F2FF" points="282.8,440.8 292.4,435.3 282.8,429.8 	"/>
	<polygon fill="#14BEF0" points="282.8,451.9 292.4,446.4 282.8,440.8 	"/>
	<polygon fill="#00DCFF" points="273.3,446.4 282.8,440.8 273.3,435.3 	"/>
	<polygon fill="#A3F2FF" points="282.8,418.8 273.3,413.3 282.8,407.8 	"/>
	<polygon fill="#14BEF0" points="292.4,424.3 282.8,418.8 292.4,413.3 	"/>
	<polygon fill="#00DCFF" points="282.8,429.8 273.3,424.3 282.8,418.8 	"/>
	<polygon fill="#A3F2FF" points="282.8,418.8 292.4,413.3 282.8,407.8 	"/>
	<polygon fill="#14BEF0" points="282.8,429.8 292.4,424.3 282.8,418.8 	"/>
	<polygon fill="#00DCFF" points="273.3,424.3 282.8,418.8 273.3,413.3 	"/>
	<polygon fill="#A3F2FF" points="273.3,424.3 263.7,418.8 273.3,413.3 	"/>
	<polygon fill="#14BEF0" points="282.8,429.8 273.3,424.3 282.8,418.8 	"/>
	<polygon fill="#00DCFF" points="273.3,435.3 263.7,429.8 273.3,424.3 	"/>
	<polygon fill="#A3F2FF" points="273.3,424.3 282.8,418.8 273.3,413.3 	"/>
	<polygon fill="#14BEF0" points="273.3,435.3 282.8,429.8 273.3,424.3 	"/>
	<polygon fill="#A3F2FF" points="292.4,424.3 282.8,418.8 292.4,413.3 	"/>
	<polygon fill="#14BEF0" points="302,429.8 292.4,424.3 302,418.8 	"/>
	<polygon fill="#00DCFF" points="292.4,435.3 282.8,429.8 292.4,424.3 	"/>
	<polygon fill="#A3F2FF" points="292.4,424.3 302,418.8 292.4,413.3 	"/>
	<polygon fill="#14BEF0" points="292.4,435.3 302,429.8 292.4,424.3 	"/>
	<polygon fill="#00DCFF" points="282.8,429.8 292.4,424.3 282.8,418.8 	"/>
	<polygon fill="#A3F2FF" points="282.8,429.8 273.3,424.3 282.8,418.8 	"/>
	<polygon fill="#14BEF0" points="292.4,435.3 282.8,429.8 292.4,424.3 	"/>
	<polygon fill="#00DCFF" points="282.8,440.8 273.3,435.3 282.8,429.8 	"/>
	<polygon fill="#A3F2FF" points="282.8,429.8 292.4,424.3 282.8,418.8 	"/>
	<polygon fill="#14BEF0" points="282.8,440.8 292.4,435.3 282.8,429.8 	"/>
	<polygon fill="#00DCFF" points="273.3,435.3 282.8,429.8 273.3,424.3 	"/>
	<polygon fill="#A3F2FF" points="321.1,429.8 311.5,424.3 321.1,418.8 	"/>
	<polygon fill="#14BEF0" points="330.6,435.3 321.1,429.8 330.6,424.3 	"/>
	<polygon fill="#00DCFF" points="321.1,440.8 311.5,435.3 321.1,429.8 	"/>
	<polygon fill="#A3F2FF" points="321.1,429.8 330.6,424.3 321.1,418.8 	"/>
	<polygon fill="#14BEF0" points="321.1,440.8 330.6,435.3 321.1,429.8 	"/>
	<polygon fill="#00DCFF" points="311.5,435.3 321.1,429.8 311.5,424.3 	"/>
	<polygon fill="#A3F2FF" points="311.5,435.3 302,429.8 311.5,424.3 	"/>
	<polygon fill="#14BEF0" points="321.1,440.8 311.5,435.3 321.1,429.8 	"/>
	<polygon fill="#00DCFF" points="311.5,446.4 302,440.8 311.5,435.3 	"/>
	<polygon fill="#A3F2FF" points="311.5,435.3 321.1,429.8 311.5,424.3 	"/>
	<polygon fill="#14BEF0" points="311.5,446.4 321.1,440.8 311.5,435.3 	"/>
	<polygon fill="#00DCFF" points="302,440.8 311.5,435.3 302,429.8 	"/>
	<polygon fill="#A3F2FF" points="330.6,435.3 321.1,429.8 330.6,424.3 	"/>
	<polygon fill="#00DCFF" points="330.6,446.4 321.1,440.8 330.6,435.3 	"/>
	<polygon fill="#A3F2FF" points="330.6,435.3 340.2,429.8 330.6,424.3 	"/>
	<polygon fill="#00DCFF" points="321.1,440.8 330.6,435.3 321.1,429.8 	"/>
	<polygon fill="#A3F2FF" points="321.1,440.8 311.5,435.3 321.1,429.8 	"/>
	<polygon fill="#14BEF0" points="330.6,446.4 321.1,440.8 330.6,435.3 	"/>
	<polygon fill="#00DCFF" points="321.1,451.9 311.5,446.4 321.1,440.8 	"/>
	<polygon fill="#A3F2FF" points="321.1,440.8 330.6,435.3 321.1,429.8 	"/>
	<polygon fill="#14BEF0" points="321.1,451.9 330.6,446.4 321.1,440.8 	"/>
	<polygon fill="#00DCFF" points="311.5,446.4 321.1,440.8 311.5,435.3 	"/>
	<polygon fill="#A3F2FF" points="321.1,418.8 311.5,413.3 321.1,407.8 	"/>
	<polygon fill="#14BEF0" points="330.6,424.3 321.1,418.8 330.6,413.3 	"/>
	<polygon fill="#00DCFF" points="321.1,429.8 311.5,424.3 321.1,418.8 	"/>
	<polygon fill="#A3F2FF" points="321.1,418.8 330.6,413.3 321.1,407.8 	"/>
	<polygon fill="#14BEF0" points="321.1,429.8 330.6,424.3 321.1,418.8 	"/>
	<polygon fill="#00DCFF" points="311.5,424.3 321.1,418.8 311.5,413.3 	"/>
	<polygon fill="#A3F2FF" points="311.5,424.3 302,418.8 311.5,413.3 	"/>
	<polygon fill="#14BEF0" points="321.1,429.8 311.5,424.3 321.1,418.8 	"/>
	<polygon fill="#00DCFF" points="311.5,435.3 302,429.8 311.5,424.3 	"/>
	<polygon fill="#A3F2FF" points="311.5,424.3 321.1,418.8 311.5,413.3 	"/>
	<polygon fill="#14BEF0" points="311.5,435.3 321.1,429.8 311.5,424.3 	"/>
	<polygon fill="#00DCFF" points="302,429.8 311.5,424.3 302,418.8 	"/>
	<polygon fill="#A3F2FF" points="330.6,424.3 321.1,418.8 330.6,413.3 	"/>
	<polygon fill="#14BEF0" points="340.2,429.8 330.6,424.3 340.2,418.8 	"/>
	<polygon fill="#00DCFF" points="330.6,435.3 321.1,429.8 330.6,424.3 	"/>
	<polygon fill="#A3F2FF" points="330.6,424.3 340.2,418.8 330.6,413.3 	"/>
	<polygon fill="#14BEF0" points="330.6,435.3 340.2,429.8 330.6,424.3 	"/>
	<polygon fill="#00DCFF" points="321.1,429.8 330.6,424.3 321.1,418.8 	"/>
	<polygon fill="#A3F2FF" points="321.1,429.8 311.5,424.3 321.1,418.8 	"/>
	<polygon fill="#14BEF0" points="330.6,435.3 321.1,429.8 330.6,424.3 	"/>
	<polygon fill="#00DCFF" points="321.1,440.8 311.5,435.3 321.1,429.8 	"/>
	<polygon fill="#A3F2FF" points="321.1,429.8 330.6,424.3 321.1,418.8 	"/>
	<polygon fill="#14BEF0" points="321.1,440.8 330.6,435.3 321.1,429.8 	"/>
	<polygon fill="#00DCFF" points="311.5,435.3 321.1,429.8 311.5,424.3 	"/>
	<polygon fill="#A3F2FF" points="302,440.8 292.4,435.3 302,429.8 	"/>
	<polygon fill="#14BEF0" points="311.5,446.4 302,440.8 311.5,435.3 	"/>
	<polygon fill="#00DCFF" points="302,451.9 292.4,446.4 302,440.8 	"/>
	<polygon fill="#A3F2FF" points="302,440.8 311.5,435.3 302,429.8 	"/>
	<polygon fill="#14BEF0" points="302,451.9 311.5,446.4 302,440.8 	"/>
	<polygon fill="#00DCFF" points="292.4,446.4 302,440.8 292.4,435.3 	"/>
	<polygon fill="#A3F2FF" points="292.4,446.4 282.8,440.8 292.4,435.3 	"/>
	<polygon fill="#14BEF0" points="302,451.9 292.4,446.4 302,440.8 	"/>
	<polygon fill="#00DCFF" points="292.4,457.4 282.8,451.9 292.4,446.4 	"/>
	<polygon fill="#A3F2FF" points="292.4,446.4 302,440.8 292.4,435.3 	"/>
	<polygon fill="#14BEF0" points="292.4,457.4 302,451.9 292.4,446.4 	"/>
	<polygon fill="#00DCFF" points="282.8,451.9 292.4,446.4 282.8,440.8 	"/>
	<polygon fill="#A3F2FF" points="311.5,446.4 302,440.8 311.5,435.3 	"/>
	<polygon fill="#14BEF0" points="321.1,451.9 311.5,446.4 321.1,440.8 	"/>
	<polygon fill="#00DCFF" points="311.5,457.4 302,451.9 311.5,446.4 	"/>
	<polygon fill="#A3F2FF" points="311.5,446.4 321.1,440.8 311.5,435.3 	"/>
	<polygon fill="#14BEF0" points="311.5,457.4 321.1,451.9 311.5,446.4 	"/>
	<polygon fill="#00DCFF" points="302,451.9 311.5,446.4 302,440.8 	"/>
	<polygon fill="#A3F2FF" points="302,429.8 292.4,424.3 302,418.8 	"/>
	<polygon fill="#14BEF0" points="311.5,435.3 302,429.8 311.5,424.3 	"/>
	<polygon fill="#00DCFF" points="302,440.8 292.4,435.3 302,429.8 	"/>
	<polygon fill="#A3F2FF" points="302,429.8 311.5,424.3 302,418.8 	"/>
	<polygon fill="#14BEF0" points="302,440.8 311.5,435.3 302,429.8 	"/>
	<polygon fill="#00DCFF" points="292.4,435.3 302,429.8 292.4,424.3 	"/>
	<polygon fill="#A3F2FF" points="292.4,435.3 282.8,429.8 292.4,424.3 	"/>
	<polygon fill="#14BEF0" points="302,440.8 292.4,435.3 302,429.8 	"/>
	<polygon fill="#00DCFF" points="292.4,446.4 282.8,440.8 292.4,435.3 	"/>
	<polygon fill="#A3F2FF" points="292.4,435.3 302,429.8 292.4,424.3 	"/>
	<polygon fill="#14BEF0" points="292.4,446.4 302,440.8 292.4,435.3 	"/>
	<polygon fill="#00DCFF" points="282.8,440.8 292.4,435.3 282.8,429.8 	"/>
	<polygon fill="#A3F2FF" points="311.5,435.3 302,429.8 311.5,424.3 	"/>
	<polygon fill="#14BEF0" points="321.1,440.8 311.5,435.3 321.1,429.8 	"/>
	<polygon fill="#00DCFF" points="311.5,446.4 302,440.8 311.5,435.3 	"/>
	<polygon fill="#A3F2FF" points="311.5,435.3 321.1,429.8 311.5,424.3 	"/>
	<polygon fill="#14BEF0" points="311.5,446.4 321.1,440.8 311.5,435.3 	"/>
	<polygon fill="#00DCFF" points="302,440.8 311.5,435.3 302,429.8 	"/>
	<polygon fill="#A3F2FF" points="302,440.8 292.4,435.3 302,429.8 	"/>
	<polygon fill="#A3F2FF" points="302,440.8 311.5,435.3 302,429.8 	"/>
	<polygon fill="#A3F2FF" points="302,396.7 292.4,391.2 302,385.7 	"/>
	<polygon fill="#14BEF0" points="311.5,402.2 302,396.7 311.5,391.2 	"/>
	<polygon fill="#00DCFF" points="302,407.8 292.4,402.2 302,396.7 	"/>
	<polygon fill="#A3F2FF" points="302,396.7 311.5,391.2 302,385.7 	"/>
	<polygon fill="#14BEF0" points="302,407.8 311.5,402.2 302,396.7 	"/>
	<polygon fill="#00DCFF" points="292.4,402.2 302,396.7 292.4,391.2 	"/>
	<polygon fill="#A3F2FF" points="292.4,402.2 282.8,396.7 292.4,391.2 	"/>
	<polygon fill="#14BEF0" points="302,407.8 292.4,402.2 302,396.7 	"/>
	<polygon fill="#00DCFF" points="292.4,413.3 282.8,407.8 292.4,402.2 	"/>
	<polygon fill="#A3F2FF" points="292.4,402.2 302,396.7 292.4,391.2 	"/>
	<polygon fill="#14BEF0" points="292.4,413.3 302,407.8 292.4,402.2 	"/>
	<polygon fill="#00DCFF" points="282.8,407.8 292.4,402.2 282.8,396.7 	"/>
	<polygon fill="#A3F2FF" points="311.5,402.2 302,396.7 311.5,391.2 	"/>
	<polygon fill="#14BEF0" points="321.1,407.8 311.5,402.2 321.1,396.7 	"/>
	<polygon fill="#00DCFF" points="311.5,413.3 302,407.8 311.5,402.2 	"/>
	<polygon fill="#A3F2FF" points="311.5,402.2 321.1,396.7 311.5,391.2 	"/>
	<polygon fill="#14BEF0" points="311.5,413.3 321.1,407.8 311.5,402.2 	"/>
	<polygon fill="#00DCFF" points="302,407.8 311.5,402.2 302,396.7 	"/>
	<polygon fill="#A3F2FF" points="302,407.8 292.4,402.2 302,396.7 	"/>
	<polygon fill="#14BEF0" points="311.5,413.3 302,407.8 311.5,402.2 	"/>
	<polygon fill="#00DCFF" points="302,418.8 292.4,413.3 302,407.8 	"/>
	<polygon fill="#A3F2FF" points="302,407.8 311.5,402.2 302,396.7 	"/>
	<polygon fill="#14BEF0" points="302,418.8 311.5,413.3 302,407.8 	"/>
	<polygon fill="#00DCFF" points="292.4,413.3 302,407.8 292.4,402.2 	"/>
	<polygon fill="#A3F2FF" points="302,385.7 292.4,380.2 302,374.7 	"/>
	<polygon fill="#14BEF0" points="311.5,391.2 302,385.7 311.5,380.2 	"/>
	<polygon fill="#00DCFF" points="302,396.7 292.4,391.2 302,385.7 	"/>
	<polygon fill="#A3F2FF" points="302,385.7 311.5,380.2 302,374.7 	"/>
	<polygon fill="#14BEF0" points="302,396.7 311.5,391.2 302,385.7 	"/>
	<polygon fill="#00DCFF" points="292.4,391.2 302,385.7 292.4,380.2 	"/>
	<polygon fill="#A3F2FF" points="292.4,391.2 282.8,385.7 292.4,380.2 	"/>
	<polygon fill="#14BEF0" points="302,396.7 292.4,391.2 302,385.7 	"/>
	<polygon fill="#00DCFF" points="292.4,402.2 282.8,396.7 292.4,391.2 	"/>
	<polygon fill="#A3F2FF" points="292.4,391.2 302,385.7 292.4,380.2 	"/>
	<polygon fill="#14BEF0" points="292.4,402.2 302,396.7 292.4,391.2 	"/>
	<polygon fill="#00DCFF" points="282.8,396.7 292.4,391.2 282.8,385.7 	"/>
	<polygon fill="#A3F2FF" points="311.5,391.2 302,385.7 311.5,380.2 	"/>
	<polygon fill="#14BEF0" points="321.1,396.7 311.5,391.2 321.1,385.7 	"/>
	<polygon fill="#00DCFF" points="311.5,402.2 302,396.7 311.5,391.2 	"/>
	<polygon fill="#A3F2FF" points="311.5,391.2 321.1,385.7 311.5,380.2 	"/>
	<polygon fill="#14BEF0" points="311.5,402.2 321.1,396.7 311.5,391.2 	"/>
	<polygon fill="#00DCFF" points="302,396.7 311.5,391.2 302,385.7 	"/>
	<polygon fill="#A3F2FF" points="302,396.7 292.4,391.2 302,385.7 	"/>
	<polygon fill="#14BEF0" points="311.5,402.2 302,396.7 311.5,391.2 	"/>
	<polygon fill="#00DCFF" points="302,407.8 292.4,402.2 302,396.7 	"/>
	<polygon fill="#A3F2FF" points="302,396.7 311.5,391.2 302,385.7 	"/>
	<polygon fill="#14BEF0" points="302,407.8 311.5,402.2 302,396.7 	"/>
	<polygon fill="#00DCFF" points="292.4,402.2 302,396.7 292.4,391.2 	"/>
	<polygon fill="#A3F2FF" points="282.8,407.8 273.3,402.2 282.8,396.7 	"/>
	<polygon fill="#14BEF0" points="292.4,413.3 282.8,407.8 292.4,402.2 	"/>
	<polygon fill="#00DCFF" points="282.8,418.8 273.3,413.3 282.8,407.8 	"/>
	<polygon fill="#A3F2FF" points="282.8,407.8 292.4,402.2 282.8,396.7 	"/>
	<polygon fill="#14BEF0" points="282.8,418.8 292.4,413.3 282.8,407.8 	"/>
	<polygon fill="#00DCFF" points="273.3,413.3 282.8,407.8 273.3,402.2 	"/>
	<polygon fill="#A3F2FF" points="273.3,413.3 263.7,407.8 273.3,402.2 	"/>
	<polygon fill="#14BEF0" points="282.8,418.8 273.3,413.3 282.8,407.8 	"/>
	<polygon fill="#00DCFF" points="273.3,424.3 263.7,418.8 273.3,413.3 	"/>
	<polygon fill="#A3F2FF" points="273.3,413.3 282.8,407.8 273.3,402.2 	"/>
	<polygon fill="#14BEF0" points="273.3,424.3 282.8,418.8 273.3,413.3 	"/>
	<polygon fill="#00DCFF" points="263.7,418.8 273.3,413.3 263.7,407.8 	"/>
	<polygon fill="#A3F2FF" points="292.4,413.3 282.8,407.8 292.4,402.2 	"/>
	<polygon fill="#14BEF0" points="302,418.8 292.4,413.3 302,407.8 	"/>
	<polygon fill="#00DCFF" points="292.4,424.3 282.8,418.8 292.4,413.3 	"/>
	<polygon fill="#A3F2FF" points="292.4,413.3 302,407.8 292.4,402.2 	"/>
	<polygon fill="#14BEF0" points="292.4,424.3 302,418.8 292.4,413.3 	"/>
	<polygon fill="#00DCFF" points="282.8,418.8 292.4,413.3 282.8,407.8 	"/>
	<polygon fill="#A3F2FF" points="282.8,418.8 273.3,413.3 282.8,407.8 	"/>
	<polygon fill="#14BEF0" points="292.4,424.3 282.8,418.8 292.4,413.3 	"/>
	<polygon fill="#00DCFF" points="282.8,429.8 273.3,424.3 282.8,418.8 	"/>
	<polygon fill="#A3F2FF" points="282.8,418.8 292.4,413.3 282.8,407.8 	"/>
	<polygon fill="#14BEF0" points="282.8,429.8 292.4,424.3 282.8,418.8 	"/>
	<polygon fill="#00DCFF" points="273.3,424.3 282.8,418.8 273.3,413.3 	"/>
	<polygon fill="#A3F2FF" points="282.8,396.7 273.3,391.2 282.8,385.7 	"/>
	<polygon fill="#14BEF0" points="292.4,402.2 282.8,396.7 292.4,391.2 	"/>
	<polygon fill="#00DCFF" points="282.8,407.8 273.3,402.2 282.8,396.7 	"/>
	<polygon fill="#A3F2FF" points="282.8,396.7 292.4,391.2 282.8,385.7 	"/>
	<polygon fill="#14BEF0" points="282.8,407.8 292.4,402.2 282.8,396.7 	"/>
	<polygon fill="#00DCFF" points="273.3,402.2 282.8,396.7 273.3,391.2 	"/>
	<polygon fill="#14BEF0" points="282.8,407.8 273.3,402.2 282.8,396.7 	"/>
	<polygon fill="#14BEF0" points="273.3,413.3 282.8,407.8 273.3,402.2 	"/>
	<polygon fill="#A3F2FF" points="292.4,402.2 282.8,396.7 292.4,391.2 	"/>
	<polygon fill="#14BEF0" points="302,407.8 292.4,402.2 302,396.7 	"/>
	<polygon fill="#00DCFF" points="292.4,413.3 282.8,407.8 292.4,402.2 	"/>
	<polygon fill="#A3F2FF" points="292.4,402.2 302,396.7 292.4,391.2 	"/>
	<polygon fill="#14BEF0" points="292.4,413.3 302,407.8 292.4,402.2 	"/>
	<polygon fill="#00DCFF" points="282.8,407.8 292.4,402.2 282.8,396.7 	"/>
	<polygon fill="#A3F2FF" points="282.8,407.8 273.3,402.2 282.8,396.7 	"/>
	<polygon fill="#14BEF0" points="292.4,413.3 282.8,407.8 292.4,402.2 	"/>
	<polygon fill="#00DCFF" points="282.8,418.8 273.3,413.3 282.8,407.8 	"/>
	<polygon fill="#A3F2FF" points="282.8,407.8 292.4,402.2 282.8,396.7 	"/>
	<polygon fill="#14BEF0" points="282.8,418.8 292.4,413.3 282.8,407.8 	"/>
	<polygon fill="#00DCFF" points="273.3,413.3 282.8,407.8 273.3,402.2 	"/>
	<polygon fill="#A3F2FF" points="321.1,407.8 311.5,402.2 321.1,396.7 	"/>
	<polygon fill="#14BEF0" points="330.6,413.3 321.1,407.8 330.6,402.2 	"/>
	<polygon fill="#00DCFF" points="321.1,418.8 311.5,413.3 321.1,407.8 	"/>
	<polygon fill="#A3F2FF" points="321.1,407.8 330.6,402.2 321.1,396.7 	"/>
	<polygon fill="#14BEF0" points="321.1,418.8 330.6,413.3 321.1,407.8 	"/>
	<polygon fill="#00DCFF" points="311.5,413.3 321.1,407.8 311.5,402.2 	"/>
	<polygon fill="#A3F2FF" points="311.5,413.3 302,407.8 311.5,402.2 	"/>
	<polygon fill="#14BEF0" points="321.1,418.8 311.5,413.3 321.1,407.8 	"/>
	<polygon fill="#00DCFF" points="311.5,424.3 302,418.8 311.5,413.3 	"/>
	<polygon fill="#A3F2FF" points="311.5,413.3 321.1,407.8 311.5,402.2 	"/>
	<polygon fill="#14BEF0" points="311.5,424.3 321.1,418.8 311.5,413.3 	"/>
	<polygon fill="#00DCFF" points="302,418.8 311.5,413.3 302,407.8 	"/>
	<polygon fill="#A3F2FF" points="330.6,413.3 321.1,407.8 330.6,402.2 	"/>
	<polygon fill="#14BEF0" points="340.2,418.8 330.6,413.3 340.2,407.8 	"/>
	<polygon fill="#00DCFF" points="330.6,424.3 321.1,418.8 330.6,413.3 	"/>
	<polygon fill="#A3F2FF" points="330.6,413.3 340.2,407.8 330.6,402.2 	"/>
	<polygon fill="#14BEF0" points="330.6,424.3 340.2,418.8 330.6,413.3 	"/>
	<polygon fill="#00DCFF" points="321.1,418.8 330.6,413.3 321.1,407.8 	"/>
	<polygon fill="#A3F2FF" points="321.1,418.8 311.5,413.3 321.1,407.8 	"/>
	<polygon fill="#14BEF0" points="330.6,424.3 321.1,418.8 330.6,413.3 	"/>
	<polygon fill="#00DCFF" points="321.1,429.8 311.5,424.3 321.1,418.8 	"/>
	<polygon fill="#A3F2FF" points="321.1,418.8 330.6,413.3 321.1,407.8 	"/>
	<polygon fill="#14BEF0" points="321.1,429.8 330.6,424.3 321.1,418.8 	"/>
	<polygon fill="#00DCFF" points="311.5,424.3 321.1,418.8 311.5,413.3 	"/>
	<polygon fill="#A3F2FF" points="321.1,396.7 311.5,391.2 321.1,385.7 	"/>
	<polygon fill="#14BEF0" points="330.6,402.2 321.1,396.7 330.6,391.2 	"/>
	<polygon fill="#00DCFF" points="321.1,407.8 311.5,402.2 321.1,396.7 	"/>
	<polygon fill="#A3F2FF" points="321.1,396.7 330.6,391.2 321.1,385.7 	"/>
	<polygon fill="#14BEF0" points="321.1,407.8 330.6,402.2 321.1,396.7 	"/>
	<polygon fill="#00DCFF" points="311.5,402.2 321.1,396.7 311.5,391.2 	"/>
	<polygon fill="#A3F2FF" points="311.5,402.2 302,396.7 311.5,391.2 	"/>
	<polygon fill="#14BEF0" points="321.1,407.8 311.5,402.2 321.1,396.7 	"/>
	<polygon fill="#00DCFF" points="311.5,413.3 302,407.8 311.5,402.2 	"/>
	<polygon fill="#A3F2FF" points="311.5,402.2 321.1,396.7 311.5,391.2 	"/>
	<polygon fill="#14BEF0" points="311.5,413.3 321.1,407.8 311.5,402.2 	"/>
	<polygon fill="#00DCFF" points="302,407.8 311.5,402.2 302,396.7 	"/>
	<polygon fill="#00DCFF" points="330.6,413.3 321.1,407.8 330.6,402.2 	"/>
	<polygon fill="#00DCFF" points="321.1,407.8 330.6,402.2 321.1,396.7 	"/>
	<polygon fill="#A3F2FF" points="321.1,407.8 311.5,402.2 321.1,396.7 	"/>
	<polygon fill="#14BEF0" points="330.6,413.3 321.1,407.8 330.6,402.2 	"/>
	<polygon fill="#00DCFF" points="321.1,418.8 311.5,413.3 321.1,407.8 	"/>
	<polygon fill="#A3F2FF" points="321.1,407.8 330.6,402.2 321.1,396.7 	"/>
	<polygon fill="#14BEF0" points="321.1,418.8 330.6,413.3 321.1,407.8 	"/>
	<polygon fill="#00DCFF" points="311.5,413.3 321.1,407.8 311.5,402.2 	"/>
	<polygon fill="#A3F2FF" points="302,418.8 292.4,413.3 302,407.8 	"/>
	<polygon fill="#14BEF0" points="311.5,424.3 302,418.8 311.5,413.3 	"/>
	<polygon fill="#00DCFF" points="302,429.8 292.4,424.3 302,418.8 	"/>
	<polygon fill="#A3F2FF" points="302,418.8 311.5,413.3 302,407.8 	"/>
	<polygon fill="#14BEF0" points="302,429.8 311.5,424.3 302,418.8 	"/>
	<polygon fill="#00DCFF" points="292.4,424.3 302,418.8 292.4,413.3 	"/>
	<polygon fill="#A3F2FF" points="292.4,424.3 282.8,418.8 292.4,413.3 	"/>
	<polygon fill="#14BEF0" points="302,429.8 292.4,424.3 302,418.8 	"/>
	<polygon fill="#00DCFF" points="292.4,435.3 282.8,429.8 292.4,424.3 	"/>
	<polygon fill="#A3F2FF" points="292.4,424.3 302,418.8 292.4,413.3 	"/>
	<polygon fill="#14BEF0" points="292.4,435.3 302,429.8 292.4,424.3 	"/>
	<polygon fill="#00DCFF" points="282.8,429.8 292.4,424.3 282.8,418.8 	"/>
	<polygon fill="#A3F2FF" points="311.5,424.3 302,418.8 311.5,413.3 	"/>
	<polygon fill="#14BEF0" points="321.1,429.8 311.5,424.3 321.1,418.8 	"/>
	<polygon fill="#00DCFF" points="311.5,435.3 302,429.8 311.5,424.3 	"/>
	<polygon fill="#A3F2FF" points="311.5,424.3 321.1,418.8 311.5,413.3 	"/>
	<polygon fill="#14BEF0" points="311.5,435.3 321.1,429.8 311.5,424.3 	"/>
	<polygon fill="#00DCFF" points="302,429.8 311.5,424.3 302,418.8 	"/>
	<polygon fill="#A3F2FF" points="302,429.8 292.4,424.3 302,418.8 	"/>
	<polygon fill="#14BEF0" points="311.5,435.3 302,429.8 311.5,424.3 	"/>
	<polygon fill="#00DCFF" points="302,440.8 292.4,435.3 302,429.8 	"/>
	<polygon fill="#A3F2FF" points="302,429.8 311.5,424.3 302,418.8 	"/>
	<polygon fill="#14BEF0" points="302,440.8 311.5,435.3 302,429.8 	"/>
	<polygon fill="#00DCFF" points="292.4,435.3 302,429.8 292.4,424.3 	"/>
	<polygon fill="#A3F2FF" points="302,407.8 292.4,402.2 302,396.7 	"/>
	<polygon fill="#14BEF0" points="311.5,413.3 302,407.8 311.5,402.2 	"/>
	<polygon fill="#00DCFF" points="302,418.8 292.4,413.3 302,407.8 	"/>
	<polygon fill="#A3F2FF" points="302,407.8 311.5,402.2 302,396.7 	"/>
	<polygon fill="#14BEF0" points="302,418.8 311.5,413.3 302,407.8 	"/>
	<polygon fill="#00DCFF" points="292.4,413.3 302,407.8 292.4,402.2 	"/>
	<polygon fill="#A3F2FF" points="292.4,413.3 282.8,407.8 292.4,402.2 	"/>
	<polygon fill="#14BEF0" points="302,418.8 292.4,413.3 302,407.8 	"/>
	<polygon fill="#00DCFF" points="292.4,424.3 282.8,418.8 292.4,413.3 	"/>
	<polygon fill="#A3F2FF" points="292.4,413.3 302,407.8 292.4,402.2 	"/>
	<polygon fill="#14BEF0" points="292.4,424.3 302,418.8 292.4,413.3 	"/>
	<polygon fill="#00DCFF" points="282.8,418.8 292.4,413.3 282.8,407.8 	"/>
	<polygon fill="#A3F2FF" points="311.5,413.3 302,407.8 311.5,402.2 	"/>
	<polygon fill="#14BEF0" points="321.1,418.8 311.5,413.3 321.1,407.8 	"/>
	<polygon fill="#00DCFF" points="311.5,424.3 302,418.8 311.5,413.3 	"/>
	<polygon fill="#A3F2FF" points="311.5,413.3 321.1,407.8 311.5,402.2 	"/>
	<polygon fill="#14BEF0" points="311.5,424.3 321.1,418.8 311.5,413.3 	"/>
	<polygon fill="#00DCFF" points="302,418.8 311.5,413.3 302,407.8 	"/>
	<g>
		<polygon fill="#A3F2FF" points="273.3,446.4 263.7,440.8 273.3,435.3 		"/>
		<polygon fill="#14BEF0" points="282.8,451.9 273.3,446.4 282.8,440.8 		"/>
		<polygon fill="#00DCFF" points="273.3,457.4 263.7,451.9 273.3,446.4 		"/>
		<polygon fill="#A3F2FF" points="273.3,446.4 282.8,440.8 273.3,435.3 		"/>
		<polygon fill="#14BEF0" points="273.3,457.4 282.8,451.9 273.3,446.4 		"/>
		<polygon fill="#00DCFF" points="263.7,451.9 273.3,446.4 263.7,440.8 		"/>
		<polygon fill="#A3F2FF" points="263.7,451.9 254.2,446.4 263.7,440.8 		"/>
		<polygon fill="#14BEF0" points="273.3,457.4 263.7,451.9 273.3,446.4 		"/>
		<polygon fill="#00DCFF" points="263.7,462.9 254.2,457.4 263.7,451.9 		"/>
		<polygon fill="#A3F2FF" points="263.7,451.9 273.3,446.4 263.7,440.8 		"/>
		<polygon fill="#14BEF0" points="263.7,462.9 273.3,457.4 263.7,451.9 		"/>
		<polygon fill="#00DCFF" points="254.2,457.4 263.7,451.9 254.2,446.4 		"/>
		<polygon fill="#A3F2FF" points="282.8,451.9 273.3,446.4 282.8,440.8 		"/>
		<polygon fill="#14BEF0" points="292.4,457.4 282.8,451.9 292.4,446.4 		"/>
		<polygon fill="#00DCFF" points="282.8,462.9 273.3,457.4 282.8,451.9 		"/>
		<polygon fill="#A3F2FF" points="282.8,451.9 292.4,446.4 282.8,440.8 		"/>
		<polygon fill="#14BEF0" points="282.8,462.9 292.4,457.4 282.8,451.9 		"/>
		<polygon fill="#00DCFF" points="273.3,457.4 282.8,451.9 273.3,446.4 		"/>
		<polygon fill="#A3F2FF" points="273.3,457.4 263.7,451.9 273.3,446.4 		"/>
		<polygon fill="#14BEF0" points="282.8,462.9 273.3,457.4 282.8,451.9 		"/>
		<polygon fill="#00DCFF" points="273.3,468.4 263.7,462.9 273.3,457.4 		"/>
		<polygon fill="#A3F2FF" points="273.3,457.4 282.8,451.9 273.3,446.4 		"/>
		<polygon fill="#14BEF0" points="273.3,468.4 282.8,462.9 273.3,457.4 		"/>
		<polygon fill="#00DCFF" points="263.7,462.9 273.3,457.4 263.7,451.9 		"/>
		<polygon fill="#A3F2FF" points="273.3,435.3 263.7,429.8 273.3,424.3 		"/>
		<polygon fill="#14BEF0" points="282.8,440.8 273.3,435.3 282.8,429.8 		"/>
		<polygon fill="#00DCFF" points="273.3,446.4 263.7,440.8 273.3,435.3 		"/>
		<polygon fill="#A3F2FF" points="273.3,435.3 282.8,429.8 273.3,424.3 		"/>
		<polygon fill="#14BEF0" points="273.3,446.4 282.8,440.8 273.3,435.3 		"/>
		<polygon fill="#00DCFF" points="263.7,440.8 273.3,435.3 263.7,429.8 		"/>
		<polygon fill="#A3F2FF" points="263.7,440.8 254.2,435.3 263.7,429.8 		"/>
		<polygon fill="#14BEF0" points="273.3,446.4 263.7,440.8 273.3,435.3 		"/>
		<polygon fill="#00DCFF" points="263.7,451.9 254.2,446.4 263.7,440.8 		"/>
		<polygon fill="#A3F2FF" points="263.7,440.8 273.3,435.3 263.7,429.8 		"/>
		<polygon fill="#14BEF0" points="263.7,451.9 273.3,446.4 263.7,440.8 		"/>
		<polygon fill="#00DCFF" points="254.2,446.4 263.7,440.8 254.2,435.3 		"/>
		<polygon fill="#00DCFF" points="282.8,451.9 273.3,446.4 282.8,440.8 		"/>
		<polygon fill="#00DCFF" points="273.3,446.4 282.8,440.8 273.3,435.3 		"/>
		<polygon fill="#A3F2FF" points="273.3,446.4 263.7,440.8 273.3,435.3 		"/>
		<polygon fill="#14BEF0" points="282.8,451.9 273.3,446.4 282.8,440.8 		"/>
		<polygon fill="#00DCFF" points="273.3,457.4 263.7,451.9 273.3,446.4 		"/>
		<polygon fill="#A3F2FF" points="273.3,446.4 282.8,440.8 273.3,435.3 		"/>
		<polygon fill="#14BEF0" points="273.3,457.4 282.8,451.9 273.3,446.4 		"/>
		<polygon fill="#00DCFF" points="263.7,451.9 273.3,446.4 263.7,440.8 		"/>
	</g>
	<g>
		<polygon fill="#A3F2FF" points="302,396.7 292.4,391.2 302,385.7 		"/>
		<polygon fill="#14BEF0" points="311.5,402.2 302,396.7 311.5,391.2 		"/>
		<polygon fill="#00DCFF" points="302,407.8 292.4,402.2 302,396.7 		"/>
		<polygon fill="#A3F2FF" points="302,396.7 311.5,391.2 302,385.7 		"/>
		<polygon fill="#14BEF0" points="302,407.8 311.5,402.2 302,396.7 		"/>
		<polygon fill="#00DCFF" points="292.4,402.2 302,396.7 292.4,391.2 		"/>
		<polygon fill="#A3F2FF" points="292.4,402.2 282.8,396.7 292.4,391.2 		"/>
		<polygon fill="#14BEF0" points="302,407.8 292.4,402.2 302,396.7 		"/>
		<polygon fill="#A3F2FF" points="292.4,402.2 302,396.7 292.4,391.2 		"/>
		<polygon fill="#A3F2FF" points="311.5,402.2 302,396.7 311.5,391.2 		"/>
		<polygon fill="#A3F2FF" points="311.5,402.2 321.1,396.7 311.5,391.2 		"/>
		<polygon fill="#00DCFF" points="302,407.8 311.5,402.2 302,396.7 		"/>
		<polygon fill="#A3F2FF" points="302,407.8 292.4,402.2 302,396.7 		"/>
		<polygon fill="#A3F2FF" points="302,407.8 311.5,402.2 302,396.7 		"/>
		<polygon fill="#A3F2FF" points="302,385.7 292.4,380.2 302,374.7 		"/>
		<polygon fill="#14BEF0" points="311.5,391.2 302,385.7 311.5,380.2 		"/>
		<polygon fill="#00DCFF" points="302,396.7 292.4,391.2 302,385.7 		"/>
		<polygon fill="#A3F2FF" points="302,385.7 311.5,380.2 302,374.7 		"/>
		<polygon fill="#14BEF0" points="302,396.7 311.5,391.2 302,385.7 		"/>
		<polygon fill="#00DCFF" points="292.4,391.2 302,385.7 292.4,380.2 		"/>
		<polygon fill="#A3F2FF" points="292.4,391.2 282.8,385.7 292.4,380.2 		"/>
		<polygon fill="#14BEF0" points="302,396.7 292.4,391.2 302,385.7 		"/>
		<polygon fill="#00DCFF" points="292.4,402.2 282.8,396.7 292.4,391.2 		"/>
		<polygon fill="#A3F2FF" points="292.4,391.2 302,385.7 292.4,380.2 		"/>
		<polygon fill="#14BEF0" points="292.4,402.2 302,396.7 292.4,391.2 		"/>
		<polygon fill="#00DCFF" points="282.8,396.7 292.4,391.2 282.8,385.7 		"/>
		<polygon fill="#A3F2FF" points="311.5,391.2 302,385.7 311.5,380.2 		"/>
		<polygon fill="#14BEF0" points="321.1,396.7 311.5,391.2 321.1,385.7 		"/>
		<polygon fill="#00DCFF" points="311.5,402.2 302,396.7 311.5,391.2 		"/>
		<polygon fill="#A3F2FF" points="311.5,391.2 321.1,385.7 311.5,380.2 		"/>
		<polygon fill="#14BEF0" points="311.5,402.2 321.1,396.7 311.5,391.2 		"/>
		<polygon fill="#00DCFF" points="302,396.7 311.5,391.2 302,385.7 		"/>
		<polygon fill="#A3F2FF" points="302,396.7 292.4,391.2 302,385.7 		"/>
		<polygon fill="#14BEF0" points="311.5,402.2 302,396.7 311.5,391.2 		"/>
		<polygon fill="#00DCFF" points="302,407.8 292.4,402.2 302,396.7 		"/>
		<polygon fill="#A3F2FF" points="302,396.7 311.5,391.2 302,385.7 		"/>
		<polygon fill="#14BEF0" points="302,407.8 311.5,402.2 302,396.7 		"/>
		<polygon fill="#00DCFF" points="292.4,402.2 302,396.7 292.4,391.2 		"/>
	</g>
	<g>
		<polygon fill="#14BEF0" points="263.7,462.9 254.2,457.4 263.7,451.9 		"/>
		<polygon fill="#00DCFF" points="254.2,468.4 244.6,462.9 254.2,457.4 		"/>
		<polygon fill="#14BEF0" points="254.2,468.4 263.7,462.9 254.2,457.4 		"/>
		<polygon fill="#00DCFF" points="244.6,462.9 254.2,457.4 244.6,451.9 		"/>
		<polygon fill="#A3F2FF" points="254.2,457.4 244.6,451.9 254.2,446.4 		"/>
		<polygon fill="#A3F2FF" points="254.2,457.4 263.7,451.9 254.2,446.4 		"/>
	</g>
	<g>
		<polygon fill="#14BEF0" points="340.2,429.8 330.6,424.3 340.2,418.8 		"/>
		<polygon fill="#00DCFF" points="330.6,435.3 321.1,429.8 330.6,424.3 		"/>
		<polygon fill="#14BEF0" points="330.6,435.3 340.2,429.8 330.6,424.3 		"/>
		<polygon fill="#00DCFF" points="321.1,429.8 330.6,424.3 321.1,418.8 		"/>
		<polygon fill="#A3F2FF" points="330.6,424.3 321.1,418.8 330.6,413.3 		"/>
		<polygon fill="#A3F2FF" points="330.6,424.3 340.2,418.8 330.6,413.3 		"/>
	</g>
	<g>
		<polygon fill="#14BEF0" points="364.4,398.6 358.5,395.2 364.4,391.9 		"/>
		<polygon fill="#00DCFF" points="358.5,402 352.7,398.6 358.5,395.2 		"/>
		<polygon fill="#14BEF0" points="358.5,402 364.4,398.6 358.5,395.2 		"/>
		<polygon fill="#00DCFF" points="352.7,398.6 358.5,395.2 352.7,391.9 		"/>
		<polygon fill="#A3F2FF" points="358.5,395.2 352.7,391.9 358.5,388.5 		"/>
		<polygon fill="#A3F2FF" points="358.5,395.2 364.4,391.9 358.5,388.5 		"/>
	</g>
	<g>
		<polygon fill="#14BEF0" points="311.5,391.2 302,385.7 311.5,380.2 		"/>
		<polygon fill="#00DCFF" points="302,396.7 292.4,391.2 302,385.7 		"/>
		<polygon fill="#14BEF0" points="302,396.7 311.5,391.2 302,385.7 		"/>
		<polygon fill="#00DCFF" points="292.4,391.2 302,385.7 292.4,380.2 		"/>
		<polygon fill="#A3F2FF" points="302,385.7 292.4,380.2 302,374.7 		"/>
		<polygon fill="#A3F2FF" points="302,385.7 311.5,380.2 302,374.7 		"/>
	</g>
	<g>
		<polygon fill="#14BEF0" points="250.9,417 243.7,412.8 250.9,408.7 		"/>
		<polygon fill="#00DCFF" points="243.7,421.1 236.6,417 243.7,412.8 		"/>
		<polygon fill="#14BEF0" points="243.7,421.1 250.9,417 243.7,412.8 		"/>
		<polygon fill="#00DCFF" points="236.6,417 243.7,412.8 236.6,408.7 		"/>
		<polygon fill="#A3F2FF" points="243.7,412.8 236.6,408.7 243.7,404.6 		"/>
		<polygon fill="#A3F2FF" points="243.7,412.8 250.9,408.7 243.7,404.6 		"/>
	</g>
</g>
</svg>
