<?xml version="1.0" encoding="utf-8"?>
<!-- Generator: Adobe Illustrator 19.2.1, SVG Export Plug-In . SVG Version: 6.00 Build 0)  -->
<!DOCTYPE svg PUBLIC "-//W3C//DTD SVG 1.1//EN" "http://www.w3.org/Graphics/SVG/1.1/DTD/svg11.dtd">
<svg version="1.1" id="Layer_1" xmlns="http://www.w3.org/2000/svg" xmlns:xlink="http://www.w3.org/1999/xlink" x="0px" y="0px"
	 viewBox="0 0 2747.9 1639.3" style="enable-background:new 0 0 2747.9 1639.3;" xml:space="preserve">
<style type="text/css">
	.st0{opacity:0.5;}
	.st1{fill:#FFFFFF;}
</style>
<title>openteam</title>
<g class="st0">
	<circle class="st1" cx="1314.5" cy="1207.3" r="23.9"/>
	<circle class="st1" cx="1373.3" cy="1207.3" r="23.9"/>
	<circle class="st1" cx="1431.9" cy="1207.3" r="23.9"/>
	<path class="st1" d="M1611,1317.8v-140.1c0.2-0.6,0.2-1.2,0-1.7v-142.6c-0.1-3.1-2.6-5.6-5.8-5.5c-0.1,0-0.2,0-0.3,0
		c-0.8,0.1-1.5,0.5-2.1,1l-65.1,41.8l-0.6,0.2c-0.5,0.2-1,0.6-1.3,1c-0.2,0-0.4,0.2-0.6,0.2l-44.3,28.4h-233.9l-44.5-28.4v-0.2
		l-67.2-42.9c-1.1-0.8-2.5-1.2-3.8-1v-0.1c-2.7,0.5-4.6,2.8-4.6,5.5v142.4c-0.2,0.7-0.2,1.4,0,2.1v140.3c-1,1.6-1,3.6,0,5.2v140.9
		c-0.2,4,5.2,6.9,8.4,4.6l65.7-42.2c0.5-0.3,0.9-0.6,1.3-1l44.7-28.6h233.9l45.1,28.6l0.2,0.4c0.2,0.2,0.4,0.2,0.6,0.4l66.1,42.4
		c3.2,2.1,8.2-0.8,8.2-4.6v-140.3C1612.1,1322,1612.1,1319.6,1611,1317.8z M1147.5,1043.1l55.8,35.7v105.6l-55.8-12V1043.1z
		 M1203.3,1418.6l-55.8,35.9V1325l55.8-12V1418.6z M1203.3,1301.9l-55.8,12.2v-130.7v0l55.8,12V1301.9z M1249.9,1302.9v85.7
		l-35.9,23.1v-101L1249.9,1302.9L1249.9,1302.9z M1249.9,1292l-35.9,7.8v-102.1l35.9,7.6V1292z M1249.9,1194.4l-35.9-7.8v-101
		l35.9,23.1V1194.4z M1487,1295.2c-0.2,0.7-0.2,1.4,0,2.1v88.8h-24.7v-65h4.5c5.8,0,10.5-4.7,10.5-10.5c0,0,0,0,0,0v-60.2
		c0-5.8-4.7-10.5-10.5-10.5c0,0,0,0,0,0h-36.1c1.5,3.3,2.3,6.9,2.3,10.5v60.2c0,10-5.9,19.1-15,23.2v52.3h-14.9v-65h4.5
		c5.8,0,10.5-4.7,10.5-10.5c0,0,0,0,0,0v-60.2c0-5.8-4.7-10.5-10.5-10.5c0,0,0,0,0,0h-68.1c-5.8,0-10.5,4.7-10.5,10.5c0,0,0,0,0,0
		v60.2c0,5.8,4.7,10.5,10.5,10.5c0,0,0,0,0,0h3.2v65h-14.9v-52.9c-8.5-4.4-13.8-13.1-13.8-22.6v-60.2c0-3.6,0.8-7.2,2.3-10.5h-35.2
		c-5.8,0-10.5,4.7-10.5,10.5c0,0,0,0,0,0v60.2c0,5.8,4.7,10.5,10.5,10.5c0,0,0,0,0,0h3.2v65h-23.7v-88.4c0.2-0.9,0.2-1.8,0-2.7
		v-183.8l0,0H1487V1295.2z M1533.8,1411.7l-36.1-23.3v-85.5v0l36.1,7.8V1411.7z M1533.9,1299.8l-36.1-8v-86.3l36.1-7.8V1299.8z
		 M1533.9,1186.6l-36.1,7.8v-85.5l36.1-23.1V1186.6z M1544.7,1079l55.6-35.7v129.2l-55.6,11.8V1079z M1600.3,1454.2l-55.6-35.7V1313
		l55.6,11.8V1454.2z M1600.3,1314.1l-55.6-12.2v-106.5l55.6-12V1314.1z"/>
</g>
</svg>
