<svg xmlns="http://www.w3.org/2000/svg" width="2747.95" height="1639.34" viewBox="0 0 2747.95 1639.34"><title>participate</title><path d="M1464.17,1230.16a24.55,24.55,0,0,0-23.92,19.23h-37a33.34,33.34,0,0,0-5.92-14.3l4.19-4.19a19.26,19.26,0,0,0,8.38,2.22,18.24,18.24,0,1,0-18.24-18.24,16.4,16.4,0,0,0,2.22,8.38l-4.19,4.19a33.34,33.34,0,0,0-14.3-5.92v-42.65a19.25,19.25,0,1,0-24.66-18.49,19.61,19.61,0,0,0,13.81,18.49v42.65a33.34,33.34,0,0,0-14.3,5.92l-20.71-20.71a32,32,0,0,0,5.92-18.74,32.3,32.3,0,1,0-32.3,32.3,33.14,33.14,0,0,0,18.74-5.92l20.71,20.71a33.34,33.34,0,0,0-5.92,14.3h-14.55a19.73,19.73,0,1,0-19,25.15,20.12,20.12,0,0,0,19-14.3h14.55a33.34,33.34,0,0,0,5.92,14.3l-32.79,32.79a14.68,14.68,0,0,0-6.66-1.48,15.78,15.78,0,1,0,15.78,15.78,14.68,14.68,0,0,0-1.48-6.66l32.79-32.79a33.34,33.34,0,0,0,14.3,5.92v16.77a25.15,25.15,0,1,0,10.85,0V1288.1a33.34,33.34,0,0,0,14.3-5.92l17.75,17.75a23.35,23.35,0,0,0-3.21,11.59,22.73,22.73,0,1,0,11.09-19.48l-17.75-17.75a33.34,33.34,0,0,0,5.92-14.3h37a24.58,24.58,0,0,0,48.57-5.42C1489.07,1241,1477.73,1230.16,1464.17,1230.16Z" fill="#fff" opacity="0.5"/></svg>