<svg xmlns="http://www.w3.org/2000/svg" width="2747.95" height="1639.34" viewBox="0 0 2747.95 1639.34"><title>performance</title><g opacity="0.5"><path d="M1416.14,1292.53a42.43,42.43,0,0,0-7.37-18.22l2-7.5,12.72-47.82a4.41,4.41,0,0,0-7.4-4.23l-3.68,3.74q-17.15,17.4-34.35,34.75l-3,3.07-1,0a42.91,42.91,0,0,0-5.81.4,42.44,42.44,0,0,0-5.6,1.15c-18.07,5-31.26,22.4-31.26,41.12,0,1.17.06,2.32,0.15,3.47a42.67,42.67,0,0,0,52.56,38,42.39,42.39,0,0,0,10.55-4.09,43.54,43.54,0,0,0,21.61-43.82M1274,1205.36l13.47,13.47a117.24,117.24,0,0,0-17.8,25.58,21.22,21.22,0,1,1-37.75-19.41,158.74,158.74,0,0,1,284.45,4.1A21.22,21.22,0,1,1,1478,1247.4a116.43,116.43,0,0,0-19.32-28.55l13.5-13.5a5,5,0,0,0-7-7l-13.49,13.49a117,117,0,0,0-15.84-12.23,115.57,115.57,0,0,0-12.38-6.91l7.53-17.47a5,5,0,0,0-9.1-3.92l-7.53,17.47a116,116,0,0,0-36.36-7.45v-19.09a5,5,0,1,0-9.9,0v19.09a116.45,116.45,0,0,0-33.5,6.38l-7.05-17.72a5,5,0,1,0-9.2,3.66l7.05,17.72a115.58,115.58,0,0,0-31,20.43L1281,1198.35a5,5,0,0,0-7,7" fill="#fff"/></g></svg>