<svg xmlns="http://www.w3.org/2000/svg" width="2747.95" height="1639.34" viewBox="0 0 2747.95 1639.34"><title>pig</title><g opacity="0.5"><circle cx="1321.43" cy="1250.92" r="9.01" fill="#fff"/><path d="M1423.52,1234.9a9,9,0,0,1-5-1c-16-9-37-13-57-11-5,0-10-3-10-9,0-5,3-10,9-10,24-2,48,3,68.06,14,5,3,6,8,4,13C1430.52,1232.9,1426.52,1234.9,1423.52,1234.9Z" fill="#fff"/><path d="M1399.5,1224.89a54.89,54.89,0,0,1-55-55c0-31,24-55,55-55A55,55,0,1,1,1399.5,1224.89Zm0-89.08c-19,0-35,16-35,35s16,35,35,35,35-16,35-35A34.81,34.81,0,0,0,1399.5,1135.82Z" fill="#fff"/><path d="M1399.5,1195.87c-14,0-26-12-26-26s12-26,26-26,26,12,26,26A25.84,25.84,0,0,1,1399.5,1195.87Zm0-42a16,16,0,1,0,16,16C1416.51,1160.84,1408.5,1153.83,1399.5,1153.83Z" fill="#fff"/><path d="M1432.53,1374h-15a22.58,22.58,0,0,1-22-18c-12,2-25,2-38,1-2,10-11,17-22,17h-15a22.21,22.21,0,0,1-22-22v-20a103.51,103.51,0,0,1-24-31c-12,0-21-10-21-22v-15c0-12,10-22,21-22a86.9,86.9,0,0,1,24-31v-15c0-4,2-7,5-8,11-6,24-4,34,3a205,205,0,0,1,24-5l2,19a101.63,101.63,0,0,0-25,6,11.29,11.29,0,0,1-11-3,12.32,12.32,0,0,0-10-5v13a9.1,9.1,0,0,1-4,8c-11,9-19,19-23,31-1,4-5,6-9,6h-6a2.65,2.65,0,0,0-3,3v15a2.65,2.65,0,0,0,3,3h6c4,0,8,3,9,6,4,12,12,22,23,31,2,2,4,5,4,8v24a2.65,2.65,0,0,0,3,3h15a2.65,2.65,0,0,0,3-3v-6c0-3,1-6,4-7,2-2,5-2,8-2,17,4,35,3,51-1a7.78,7.78,0,0,1,8,2c2,2,4,5,4,8v7a2.65,2.65,0,0,0,3,3h15a2.65,2.65,0,0,0,3-3v-28a9.09,9.09,0,0,1,3-7c14-12,22-28,22-45,0-2,1-4,2-6a5.5,5.5,0,0,1-3-5c-4-19-18-35-39-45l8-17c18,9,33,23,42,38a10.51,10.51,0,0,1,5-9c4-2,8-1,11,2a29.43,29.43,0,0,1,9,22c0,11-6,22-16,27-2,19-10,37-25,51v24C1455.55,1364,1445.54,1374,1432.53,1374Z" fill="#fff"/></g></svg>