<svg xmlns="http://www.w3.org/2000/svg" width="2747.95" height="1639.34" viewBox="0 0 2747.95 1639.34"><title>slack</title><path d="M1255.64,1257.19a23.93,23.93,0,0,1-23.33-16.4c-0.13-.39-0.24-0.77-0.35-1.15A25.08,25.08,0,0,1,1248.2,1209l204.94-68.66a27.78,27.78,0,0,1,7.48-1.09,24.56,24.56,0,0,1,23.95,16.75l0.31,1c3.83,13.4-5.69,25.36-17.1,29.2L1264,1255.77a26.53,26.53,0,0,1-8.32,1.42h0Z" fill="#fff" opacity="0.5"/><path d="M1289.8,1358c-10.89.08-20.07-6.27-23.4-16.17-0.13-.38-0.25-0.76-0.35-1.14a25.26,25.26,0,0,1,16.21-30.94l204.95-69.29a26.38,26.38,0,0,1,8.13-1.36,24.77,24.77,0,0,1,23.89,16.6l0.31,1a25.93,25.93,0,0,1-3.13,20.84c-2.93,4.57-12.19,8.59-12.19,8.59l-205.73,70.34a28.22,28.22,0,0,1-8.71,1.49h0Z" fill="#fff" opacity="0.73"/><path d="M1460.41,1358.42a25.16,25.16,0,0,1-24.09-17.15l-68.4-203.17-0.34-1.14a25.19,25.19,0,0,1,48.11-14.93l68.39,203.15,0.2,0.65a25.18,25.18,0,0,1-23.87,32.59h0Z" fill="#fff" opacity="0.35"/><path d="M1358.74,1392.64a25.17,25.17,0,0,1-24.1-17.16l-68.38-203.16c-0.12-.37-0.24-0.75-0.35-1.13a25.16,25.16,0,0,1,16.18-30.78,25.46,25.46,0,0,1,7.83-1.31,25.16,25.16,0,0,1,24.1,17.15l68.38,203.17c0.13,0.35.24,0.75,0.35,1.12a25.19,25.19,0,0,1-24,32.11h0Z" fill="#fff" opacity="0.6"/></svg>