<svg xmlns="http://www.w3.org/2000/svg" width="2747.95" height="1639.34" viewBox="0 0 2747.95 1639.34"><title>surveyempty</title><path d="M1486.93,1100H1424v-5.72a5.71,5.71,0,0,0-5.72-5.72H1400.6a28.58,28.58,0,0,0-56,0h-17.73a5.71,5.71,0,0,0-5.72,5.72V1100h-62.88a5.71,5.71,0,0,0-5.72,5.72v285.84a5.71,5.71,0,0,0,5.72,5.72h228.67a5.71,5.71,0,0,0,5.72-5.72V1105.73A5.71,5.71,0,0,0,1486.93,1100Zm-68.6,68.6h17.15a5.72,5.72,0,1,1,0,11.43h-17.15A5.72,5.72,0,1,1,1418.33,1168.62Zm-102.9,80a5.72,5.72,0,1,1,0-11.43h45.73a5.72,5.72,0,0,1,0,11.43h-45.73Zm11.43,17.15a5.71,5.71,0,0,1-5.72,5.72h-5.72a5.72,5.72,0,1,1,0-11.43h5.72A5.71,5.71,0,0,1,1326.86,1265.8Zm-11.43-51.45h17.15a5.72,5.72,0,1,1,0,11.43h-17.15A5.72,5.72,0,0,1,1315.43,1214.35Zm-5.72-17.15a5.71,5.71,0,0,1,5.72-5.72h40a5.72,5.72,0,0,1,0,11.43h-40A5.71,5.71,0,0,1,1309.71,1197.2Zm34.3,62.88h22.87a5.72,5.72,0,1,1,0,11.43H1344A5.72,5.72,0,0,1,1344,1260.08Zm11.43-34.3a5.72,5.72,0,1,1,0-11.43h34.3a5.72,5.72,0,1,1,0,11.43h-34.3Zm28.58,11.43h22.87a5.72,5.72,0,1,1,0,11.43H1384A5.72,5.72,0,0,1,1384,1237.22Zm5.72,22.87h45.73a5.72,5.72,0,1,1,0,11.43h-45.73A5.72,5.72,0,1,1,1389.75,1260.08Zm45.73-11.43h-5.72a5.72,5.72,0,1,1,0-11.43h5.72A5.72,5.72,0,1,1,1435.48,1248.65Zm0-22.87h-22.87a5.72,5.72,0,0,1,0-11.43h22.87A5.72,5.72,0,0,1,1435.48,1225.78Zm0-22.87h-57.17a5.72,5.72,0,0,1,0-11.43h57.17A5.72,5.72,0,1,1,1435.48,1202.92Zm-102.9-74.32V1100h17.15a5.71,5.71,0,0,0,5.72-5.72,17.15,17.15,0,1,1,34.3,0,5.71,5.71,0,0,0,5.72,5.72h17.15v34.3h-80v-5.72Zm62.88,40a5.72,5.72,0,1,1,0,11.43h-80a5.72,5.72,0,1,1,0-11.43h80Zm74.32,103.19v96.89a5.71,5.71,0,0,1-5.72,5.72H1281.13a5.71,5.71,0,0,1-5.72-5.72V1128.6a5.71,5.71,0,0,1,5.72-5.72h40v11.43h-34.3V1363h171.5V1134.32H1424v-11.43h40a5.71,5.71,0,0,1,5.72,5.72v143.21Z" fill="#fff" opacity="0.5"/></svg>