<svg xmlns="http://www.w3.org/2000/svg" width="2747.95" height="1639.34" viewBox="0 0 2747.95 1639.34"><title>survey</title><g opacity="0.5"><path d="M1475.5,1397.29a57,57,0,0,1-38.31-14.86l-0.68-.62a57.7,57.7,0,0,1-12.83-17.87c0.27,0.59.51,1.19,0.78,1.78a56.82,56.82,0,0,1,3.77-57.69,58.2,58.2,0,0,1,4.48-5.68l1.07-1.18a58.21,58.21,0,0,1,5.22-5,56.72,56.72,0,0,0-5.19,5,57,57,0,0,1,31.28-17.18c1.68-.31,3.37-0.55,5.09-0.73s3.52-.27,5.31-0.27,3.5,0.11,5.23.26,3.36,0.4,5.12.72a57.15,57.15,0,0,1-10.34,113.35h0Zm-200.09-28.58V1128.6a5.71,5.71,0,0,1,5.72-5.72h40v11.43h-34.3V1363h124c-0.11-.32-0.19-0.65-0.3-1a68.62,68.62,0,0,0,5.63,12.4h-135a5.71,5.71,0,0,1-5.72-5.72h0ZM1332.58,1100h17.15a5.71,5.71,0,0,0,5.72-5.72,17.15,17.15,0,1,1,34.3,0,5.71,5.71,0,0,0,5.72,5.72h17.15v34.3h-80V1100Zm100.08,202.38a56.38,56.38,0,0,0-4.44,5.63,56.38,56.38,0,0,1,4.44-5.63h0Zm-42.92-42.31h45.73a5.72,5.72,0,0,1,0,11.43h-45.73a5.72,5.72,0,1,1,0-11.43h0Zm-5.72-22.87h22.87a5.72,5.72,0,0,1,0,11.43H1384a5.72,5.72,0,0,1,0-11.43h0Zm-28.58-11.43a5.72,5.72,0,0,1,0-11.43h34.3a5.72,5.72,0,0,1,0,11.43h-34.3Zm-11.43,34.3h22.87a5.72,5.72,0,1,1,0,11.43H1344a5.72,5.72,0,1,1,0-11.43h0Zm-28.58-45.73h17.15a5.72,5.72,0,0,1,0,11.43h-17.15a5.72,5.72,0,1,1,0-11.43h0Zm0-22.87h40a5.72,5.72,0,1,1,0,11.43h-40a5.72,5.72,0,1,1,0-11.43h0Zm80-22.87a5.72,5.72,0,0,1,0,11.43h-80a5.72,5.72,0,1,1,0-11.43h80Zm40,11.43h-17.15a5.72,5.72,0,1,1,0-11.43h17.15a5.72,5.72,0,0,1,0,11.43h0Zm0,22.87h-57.17a5.72,5.72,0,0,1,0-11.43h57.17a5.72,5.72,0,0,1,0,11.43h0Zm5.72,40a5.71,5.71,0,0,1-5.72,5.72h-5.72a5.72,5.72,0,0,1,0-11.43h5.72a5.71,5.71,0,0,1,5.72,5.72h0Zm-5.72-17.15h-22.87a5.72,5.72,0,0,1,0-11.43h22.87a5.72,5.72,0,0,1,0,11.43h0Zm-108.62,40a5.71,5.71,0,0,1-5.72,5.72h-5.72a5.72,5.72,0,1,1,0-11.43h5.72a5.71,5.71,0,0,1,5.72,5.72h0Zm-11.43-17.15a5.72,5.72,0,0,1,0-11.43h45.73a5.72,5.72,0,0,1,0,11.43h-45.73Zm148.64-125.77a5.71,5.71,0,0,1,5.72,5.72v143.21a68.13,68.13,0,0,0-12.48,2.24c0.35-.1.69-0.22,1-0.31V1134.32H1424v-11.43h40Zm28.58,150.89v-168a5.71,5.71,0,0,0-5.72-5.72H1424v-5.72a5.71,5.71,0,0,0-5.72-5.72H1400.6a28.58,28.58,0,0,0-56,0h-17.73a5.71,5.71,0,0,0-5.72,5.72V1100h-62.88a5.71,5.71,0,0,0-5.72,5.72v285.84a5.71,5.71,0,0,0,5.72,5.72h179.4a68.55,68.55,0,1,0,55-123.51h0Z" fill="#fff"/><path d="M1499.32,1314.08l-29.82,44.73-12.3-16.4a5.72,5.72,0,0,0-9.15,6.85l17.15,22.87a5.48,5.48,0,0,0,.45.37,5.62,5.62,0,0,0,1,1c0.15,0.1.31,0.13,0.46,0.21s0.33,0.16.5,0.23a5.76,5.76,0,0,0,2.21.51h0a5.78,5.78,0,0,0,1.56-.25c0.15,0,.3-0.11.45-0.17a5.56,5.56,0,0,0,1.13-.59c0.08-.06.18-0.07,0.26-0.14s0.06-.07.1-0.11a5.63,5.63,0,0,0,1.23-1.29l34.3-51.45a5.72,5.72,0,0,0-9.51-6.34" fill="#fff"/></g></svg>